<?xml version="1.0" encoding="UTF-8"?>
<svg id="Capa_1" xmlns="http://www.w3.org/2000/svg" version="1.1" viewBox="0 0 199.17 37.57">
  <!-- Generator: Adobe Illustrator 29.6.1, SVG Export Plug-In . SVG Version: 2.1.1 Build 9)  -->
  <defs>
    <style>
      .st0 {
        fill: #60605f;
      }
    </style>
  </defs>
  <g>
    <polygon class="st0" points="179.75 32.75 179.75 20.27 186.14 20.27 186.14 21.58 181.23 21.58 181.23 25.58 185.82 25.58 185.82 26.9 181.23 26.9 181.23 31.43 186.29 31.43 186.29 32.75 179.75 32.75"/>
    <polygon class="st0" points="179.95 20.47 185.94 20.47 185.94 21.38 181.03 21.38 181.03 25.78 185.62 25.78 185.62 26.7 181.03 26.7 181.03 31.63 186.09 31.63 186.09 32.55 179.95 32.55 179.95 20.47"/>
    <path class="st0" d="M170.05,32.77v-12.48l.2-.02h3.6c2.08,0,3.33,1.21,3.33,3.23,0,1.49-.59,2.56-1.64,3.04,1.2.38,1.49,1.45,1.53,2.92l.03,1.32c.02.62.07,1.22.45,1.65l.29.33h-1.82l-.06-.1c-.29-.49-.34-1.21-.35-1.79l-.03-1.01c-.07-2.15-.46-2.62-2.2-2.62h-1.85v5.52h-1.48ZM173.19,25.92c1.67,0,2.51-.73,2.51-2.17,0-1.52-.71-2.17-2.39-2.17h-1.78v4.34h1.66Z"/>
    <path class="st0" d="M171.33,26.12h1.86c1.71,0,2.71-.78,2.71-2.37,0-1.47-.63-2.37-2.59-2.37h-1.98v4.74h0ZM170.25,20.47h3.6c2.01,0,3.13,1.15,3.13,3.03,0,1.45-.58,2.76-2.18,3.06v.04c1.51.13,2.02.99,2.07,2.86l.03,1.32c.02.66.08,1.3.5,1.78h-1.27c-.25-.42-.31-1.05-.32-1.69l-.03-1.01c-.07-2.13-.45-2.81-2.4-2.81h-2.05v5.52h-1.08v-12.08h0v-.02Z"/>
    <polygon class="st0" points="155.26 32.75 155.26 21.58 152.14 21.58 152.14 20.27 159.85 20.27 159.85 21.58 156.74 21.58 156.74 32.75 155.26 32.75"/>
    <polygon class="st0" points="155.46 21.38 152.34 21.38 152.34 20.47 159.65 20.47 159.65 21.38 156.54 21.38 156.54 32.55 155.46 32.55 155.46 21.38"/>
    <path class="st0" d="M147.5,32.75c-2.36,0-3.72-1.38-3.72-3.79v-.55h1.48v.65c0,1.51.8,2.37,2.2,2.37,1.1,0,2.41-.39,2.41-2.25,0-1.56-1.19-1.95-2.57-2.4-1.54-.5-3.29-1.07-3.29-3.52,0-2.07,1.39-3.4,3.53-3.4,2.31,0,3.48,1.18,3.48,3.5v.2h-1.47v-.2c0-1.45-.66-2.19-1.97-2.19s-2.08.77-2.08,1.97c0,1.58,1.21,1.98,2.61,2.44,1.52.5,3.24,1.07,3.24,3.43s-1.44,3.74-3.85,3.74Z"/>
    <path class="st0" d="M149.75,23.36c0-1.49-.69-2.39-2.17-2.39s-2.28.96-2.28,2.17c0,3.6,5.85,1.62,5.85,5.87,0,2.34-1.45,3.54-3.65,3.54s-3.52-1.22-3.52-3.59v-.35h1.08v.45c0,1.54.81,2.57,2.4,2.57s2.61-.76,2.61-2.45c0-3.59-5.86-1.54-5.86-5.92,0-1.89,1.24-3.2,3.33-3.2,2.25,0,3.28,1.15,3.28,3.3h-1.08,0Z"/>
    <path class="st0" d="M164.23,32.75c-2.69,0-4.06-2.17-4.06-6.44s1.37-6.45,4.06-6.45,4.06,2.17,4.06,6.45-1.37,6.44-4.06,6.44ZM164.23,21.18c-1.1,0-2.57.53-2.57,5.13s1.47,5.13,2.57,5.13,2.57-.53,2.57-5.13-1.47-5.13-2.57-5.13Z"/>
    <path class="st0" d="M164.23,31.64c1.72,0,2.77-1.42,2.77-5.33s-1.05-5.33-2.77-5.33-2.77,1.42-2.77,5.33,1.05,5.33,2.77,5.33ZM164.23,20.06c2.47,0,3.86,1.91,3.86,6.25s-1.39,6.24-3.86,6.24-3.86-1.91-3.86-6.24,1.39-6.25,3.86-6.25Z"/>
  </g>
  <path class="st0" d="M32.32,24.91c0,5.43-3.21,8.07-8.58,8.07s-8.55-2.62-8.55-8.07v-12.49h4.42v12.49c0,2.19.56,4.36,4.13,4.36,3.15,0,4.16-1.38,4.16-4.36v-12.49h4.42v12.49h0Z"/>
  <path class="st0" d="M40.53,29.07h4.73c1.74,0,3.26-.56,3.26-2.65s-1.29-2.87-3.18-2.87h-4.81v5.51h0ZM40.53,20.55h4.47c1.55,0,2.7-.7,2.7-2.39,0-1.91-1.46-2.3-3.04-2.3h-4.14v4.7h0ZM36.12,12.42h9.45c3.82,0,6.41,1.24,6.41,4.98,0,1.97-.99,3.35-2.73,4.19,2.45.7,3.69,2.59,3.69,5.09,0,4.08-3.46,5.82-7.09,5.82h-9.73V12.42Z"/>
  <path class="st0" d="M60.99,24.74h5.2l-2.53-7.37h-.06l-2.62,7.37h0ZM61.41,12.42h4.53l7.51,20.08h-4.59l-1.52-4.47h-7.52l-1.57,4.47h-4.47l7.62-20.08h0Z"/>
  <path class="st0" d="M13.49,29.92c0,1.51-1.23,2.74-2.74,2.74s-2.74-1.23-2.74-2.74,1.23-2.74,2.74-2.74,2.74,1.22,2.74,2.74Z"/>
  <path class="st0" d="M141.57,30.74c0,1.05-.86,1.91-1.91,1.91s-1.91-.86-1.91-1.91.86-1.91,1.91-1.91,1.91.85,1.91,1.91Z"/>
  <path class="st0" d="M77.15,13.9h-2.82v-1.93h2.82v-2.43c0-2.82.58-4.95,4.48-4.95.7,0,1.04.04,1.47.12v1.93c-.35-.08-.69-.12-1.12-.12-1.7,0-2.51.66-2.51,3.02v2.43h3.63v1.93h-3.63v18.59h-2.32V13.9h0Z"/>
  <path class="st0" d="M95.78,20.89h-.08c-.23.7-1.55,1.12-2.47,1.35l-1.93.5c-2.32.62-3.52,1.82-3.52,4.25s1.24,4.02,3.25,4.02c2.82,0,4.75-2.12,4.75-5.8v-4.33h0ZM85.96,18.07c0-4.21,2.01-6.57,6.34-6.57s5.79,2.2,5.79,5.45v12.13c0,1.16.39,1.7,1.2,1.7h.66v1.7c-.42.15-.77.23-1.08.23-1.82,0-2.98-.42-2.98-2.55v-.69h-.08c-.93,2.71-3.02,3.48-5.29,3.48-3.59,0-5.22-2.24-5.22-5.8,0-2.71,1.24-4.87,4.13-5.68l4.36-1.24c1.62-.46,1.97-.85,1.97-3.24,0-2.63-1.47-3.56-3.55-3.56-2.74,0-3.94,1.66-3.94,4.64h-2.32.01Z"/>
  <path class="st0" d="M109.73,31.02c2.36,0,4.48-1.2,4.48-8.81s-2.12-8.77-4.48-8.77-4.48,1.2-4.48,8.77,2.16,8.81,4.48,8.81ZM114.44,29.09h-.08c-.62,2.36-2.59,3.86-5.02,3.86-4.52,0-6.57-3.63-6.57-10.74s2.05-10.7,6.57-10.7c2.55,0,4.29,1.39,4.79,3.56h.07V4.89h2.32v27.59h-2.09v-3.4h0Z"/>
  <path class="st0" d="M121.55,11.97h2.32v14.45c0,3.32,1.12,4.6,3.55,4.6,2.63,0,4.48-2.09,4.48-5.26v-13.79h2.32v20.52h-2.09v-2.86h-.08c-1.16,2.28-3.17,3.32-5.25,3.32-3.13,0-5.26-1.62-5.26-5.49v-15.49h0Z"/>
</svg>
