<?xml version="1.0" encoding="UTF-8"?>
<svg id="Capa_1" xmlns="http://www.w3.org/2000/svg" version="1.1" viewBox="0 0 407.35 112.7">
  <!-- Generator: Adobe Illustrator 29.6.1, SVG Export Plug-In . SVG Version: 2.1.1 Build 9)  -->
  <defs>
    <style>
      .st0 {
        fill: #1d1d1b;
      }

      .st1 {
        fill: #0f3bff;
      }
    </style>
  </defs>
  <g>
    <g>
      <polygon class="st1" points="379.2 78.88 379.2 58.95 389.41 58.95 389.41 61.04 381.57 61.04 381.57 67.43 388.89 67.43 388.89 69.54 381.57 69.54 381.57 76.77 389.65 76.77 389.65 78.88 379.2 78.88"/>
      <polygon class="st1" points="379.52 59.27 389.09 59.27 389.09 60.72 381.25 60.72 381.25 67.75 388.58 67.75 388.58 69.22 381.25 69.22 381.25 77.09 389.33 77.09 389.33 78.56 379.52 78.56 379.52 59.27"/>
      <path class="st1" d="M363.72,78.91v-19.92l.32-.03h5.75c3.32,0,5.32,1.93,5.32,5.16,0,2.38-.94,4.09-2.62,4.85,1.92.61,2.38,2.31,2.44,4.66l.05,2.11c.03.99.11,1.95.72,2.63l.46.53h-2.91l-.1-.16c-.46-.78-.54-1.93-.56-2.86l-.05-1.61c-.11-3.43-.73-4.18-3.51-4.18h-2.95v8.81h-2.36v.02ZM368.73,67.97c2.67,0,4.01-1.17,4.01-3.46,0-2.43-1.13-3.46-3.82-3.46h-2.84v6.93h2.65Z"/>
      <path class="st1" d="M365.76,68.29h2.97c2.73,0,4.33-1.25,4.33-3.78,0-2.35-1.01-3.78-4.13-3.78h-3.16v7.57h0ZM364.04,59.27h5.75c3.21,0,5,1.84,5,4.84,0,2.31-.93,4.41-3.48,4.89v.06c2.41.21,3.22,1.58,3.3,4.57l.05,2.11c.03,1.05.13,2.08.8,2.84h-2.03c-.4-.67-.49-1.68-.51-2.7l-.05-1.61c-.11-3.4-.72-4.49-3.83-4.49h-3.27v8.81h-1.72v-19.29h0v-.03h0Z"/>
      <polygon class="st1" points="340.11 78.88 340.11 61.04 335.12 61.04 335.12 58.95 347.43 58.95 347.43 61.04 342.47 61.04 342.47 78.88 340.11 78.88"/>
      <polygon class="st1" points="340.42 60.72 335.44 60.72 335.44 59.27 347.11 59.27 347.11 60.72 342.15 60.72 342.15 78.56 340.42 78.56 340.42 60.72"/>
      <path class="st1" d="M327.72,78.88c-3.77,0-5.94-2.2-5.94-6.05v-.88h2.36v1.04c0,2.41,1.28,3.78,3.51,3.78,1.76,0,3.85-.62,3.85-3.59,0-2.49-1.9-3.11-4.1-3.83-2.46-.8-5.25-1.71-5.25-5.62,0-3.3,2.22-5.43,5.64-5.43,3.69,0,5.56,1.88,5.56,5.59v.32h-2.35v-.32c0-2.31-1.05-3.5-3.15-3.5s-3.32,1.23-3.32,3.15c0,2.52,1.93,3.16,4.17,3.9,2.43.8,5.17,1.71,5.17,5.48s-2.3,5.97-6.15,5.97h0Z"/>
      <path class="st1" d="M331.31,63.88c0-2.38-1.1-3.82-3.46-3.82s-3.64,1.53-3.64,3.46c0,5.75,9.34,2.59,9.34,9.37,0,3.74-2.31,5.65-5.83,5.65s-5.62-1.95-5.62-5.73v-.56h1.72v.72c0,2.46,1.29,4.1,3.83,4.1s4.17-1.21,4.17-3.91c0-5.73-9.36-2.46-9.36-9.45,0-3.02,1.98-5.11,5.32-5.11,3.59,0,5.24,1.84,5.24,5.27h-1.72.02Z"/>
      <path class="st1" d="M354.43,78.88c-4.29,0-6.48-3.46-6.48-10.28s2.19-10.3,6.48-10.3,6.48,3.46,6.48,10.3-2.19,10.28-6.48,10.28ZM354.43,60.4c-1.76,0-4.1.85-4.1,8.19s2.35,8.19,4.1,8.19,4.1-.85,4.1-8.19-2.35-8.19-4.1-8.19Z"/>
      <path class="st1" d="M354.43,77.1c2.75,0,4.42-2.27,4.42-8.51s-1.68-8.51-4.42-8.51-4.42,2.27-4.42,8.51,1.68,8.51,4.42,8.51ZM354.43,58.62c3.94,0,6.16,3.05,6.16,9.98s-2.22,9.96-6.16,9.96-6.16-3.05-6.16-9.96,2.22-9.98,6.16-9.98Z"/>
    </g>
    <path class="st0" d="M143.83,66.36c0,8.67-5.12,12.88-13.7,12.88s-13.65-4.18-13.65-12.88v-19.94h7.06v19.94c0,3.5.89,6.96,6.59,6.96,5.03,0,6.64-2.2,6.64-6.96v-19.94h7.06v19.94h0Z"/>
    <path class="st0" d="M156.94,73h7.55c2.78,0,5.2-.89,5.2-4.23s-2.06-4.58-5.08-4.58h-7.68v8.8h0v.02ZM156.94,59.4h7.14c2.47,0,4.31-1.12,4.31-3.82,0-3.05-2.33-3.67-4.85-3.67h-6.61v7.5h0l.02-.02ZM149.9,46.42h15.09c6.1,0,10.23,1.98,10.23,7.95,0,3.15-1.58,5.35-4.36,6.69,3.91,1.12,5.89,4.13,5.89,8.13,0,6.51-5.52,9.29-11.32,9.29h-15.53v-32.06Z"/>
    <path class="st0" d="M189.6,66.09h8.3l-4.04-11.77h-.1l-4.18,11.77h.02ZM190.27,46.42h7.23l11.99,32.06h-7.33l-2.43-7.14h-12.01l-2.51,7.14h-7.14l12.17-32.06h.02Z"/>
    <path class="st0" d="M113.77,74.36c0,2.41-1.96,4.37-4.37,4.37s-4.37-1.96-4.37-4.37,1.96-4.37,4.37-4.37,4.37,1.95,4.37,4.37Z"/>
    <path class="st1" d="M318.25,75.67c0,1.68-1.37,3.05-3.05,3.05s-3.05-1.37-3.05-3.05,1.37-3.05,3.05-3.05,3.05,1.36,3.05,3.05Z"/>
    <path class="st0" d="M215.4,48.78h-4.5v-3.08h4.5v-3.88c0-4.5.93-7.9,7.15-7.9,1.12,0,1.66.06,2.35.19v3.08c-.56-.13-1.1-.19-1.79-.19-2.71,0-4.01,1.05-4.01,4.82v3.88h5.8v3.08h-5.8v29.68h-3.7v-29.68h0Z"/>
    <path class="st0" d="M245.14,59.94h-.13c-.37,1.12-2.47,1.79-3.94,2.16l-3.08.8c-3.7.99-5.62,2.91-5.62,6.79s1.98,6.42,5.19,6.42c4.5,0,7.58-3.38,7.58-9.26v-6.91h0v.02ZM229.47,55.44c0-6.72,3.21-10.49,10.12-10.49s9.24,3.51,9.24,8.7v19.37c0,1.85.62,2.71,1.92,2.71h1.05v2.71c-.67.24-1.23.37-1.72.37-2.91,0-4.76-.67-4.76-4.07v-1.1h-.13c-1.48,4.33-4.82,5.56-8.45,5.56-5.73,0-8.33-3.58-8.33-9.26,0-4.33,1.98-7.78,6.59-9.07l6.96-1.98c2.59-.73,3.15-1.36,3.15-5.17,0-4.2-2.35-5.68-5.67-5.68-4.37,0-6.29,2.65-6.29,7.41h-3.7s.02,0,.02,0Z"/>
    <path class="st0" d="M267.42,76.11c3.77,0,7.15-1.92,7.15-14.07s-3.38-14-7.15-14-7.15,1.92-7.15,14,3.45,14.07,7.15,14.07ZM274.94,73.03h-.13c-.99,3.77-4.13,6.16-8.01,6.16-7.22,0-10.49-5.8-10.49-17.15s3.27-17.08,10.49-17.08c4.07,0,6.85,2.22,7.65,5.68h.11v-16.25h3.7v44.05h-3.34v-5.43h0l.02.02Z"/>
    <path class="st0" d="M286.29,45.7h3.7v23.07c0,5.3,1.79,7.34,5.67,7.34,4.2,0,7.15-3.34,7.15-8.4v-22.02h3.7v32.76h-3.34v-4.57h-.13c-1.85,3.64-5.06,5.3-8.38,5.3-5,0-8.4-2.59-8.4-8.76v-24.73h.02Z"/>
  </g>
  <g>
    <path class="st0" d="M64.55,55.55c0,.15-.14.28-.28.3-.14.02-.26-.14-.28-.29,0-.11.12-.23.28-.15.16.01.28.09.28.14Z"/>
    <path class="st0" d="M56.94,75.09l-.25.14c-.13.43-.46,1.09-1.48,1.59,0,0,.99-.04,1.44-.99-.03.11-.23,1.14-1.56,2.86,0,0,.04.28.28.05,1.36-1.37,1.6-3.34,1.57-3.65Z"/>
    <path class="st0" d="M68.53,76.71c.11-.11-.2.09-.07.03.1-.04.2-.05.31-.06.41-.02.82.21,1.15.41l.25-.15c-.55-.35-1.35-.64-1.89-.1l.24-.14Z"/>
    <path class="st0" d="M71.43,78.81c.2.18.49.27.77.27l.24-.14c-.27,0-.56-.1-.77-.27l-.25.14Z"/>
    <path class="st0" d="M79.39,45.21c0-.12-.09-.15-.19-.05-1.46,1.31-4.06,1.35-5.84.78-.22-.07-.35.12-.35.12,2.01.6,5.28.79,6.38-.85Z"/>
    <path class="st0" d="M73.16,45.52c-.39-.05-.3.11-.3.11.44.14.87.21,1.29.21.87.28,1.82-.03,1.82-.03-.26,0-.7,0-1.07-.03,1.05-.19,2.46-.71,2.95-1.31-.51.61-3.33,1.24-4.7,1.05Z"/>
    <path class="st0" d="M55.42,43.18h-.04s.04,0,.04,0Z"/>
    <path class="st0" d="M58.05,44.38c-.62-.87-2.06-1.05-2.63-1.19,1.33.39,2.58,1.18,2.63,1.19Z"/>
    <path class="st0" d="M68.59,48.1c.29.15.52-.22.52-.48,0-.18-.25-.49-.53-.45-.29.12-.53.22-.52.64.01.23.24.4.54.28Z"/>
    <path class="st0" d="M66.12,37.59c-.18.07-.5,0-.5,0,.48.59.91.16.91.16.22-.28-.41-.17-.41-.17Z"/>
    <path class="st0" d="M62.34,38.64l-.17.13s-.28-.08-.08.21c0,0,.29.46.51.37,0,0,.2-.05-.04-.24,0,0,.05-.4-.21-.49Z"/>
    <path class="st0" d="M20.28,58.36c-.37-.29-2.34-.39-2.83-.43-.49-.04-1.66-.13-1.75-.13-.14-.02-.27-.02-.37-.14-.07-.1-.07-.17-.21-.18l-.21.1h0s0,0,0,0c-.1.07-.06.26-.07.36,0,.25-.01.49-.02.74-.01.17.12.18.23.14,0,0,.33-.31.55-.31.9.02,3.48.04,3.85.14.64.17.72,1.07.27,1.46v.02s-.32.09-.46.1c-1.15,0-2.28-.01-3.42-.02-.15,0-.26-.03-.37-.13-.09-.08-.19-.19-.31-.13h0s-.02,0-.02,0l-.11.06c-.21.15-.09.57-.09.8,0,.16-.07,1.19.14,1.26.11.04.32-.24.4-.34.28-.08,2.09-.08,2.66-.1.7-.03,1.57.02,2.15-.41.42-.31.39-.84.39-1.29,0-.54.07-1.19-.4-1.57ZM15.21,58.64l.08-.08h0s-.09.08-.09.08ZM19.55,61.51c.24-.05.43-.11.57-.18-.16.1-.36.15-.57.18Z"/>
    <polyline class="st0" points="72.7 22.68 72.69 22.69 72.7 22.69 72.7 22.68"/>
    <path class="st0" d="M20.26,52.8c-.1,0-1.2-.18-1.67-.25-.83-.14-1.67-.22-2.49-.4-.15-.04-.22-.1-.29-.22-.05-.1-.17-.31-.31-.24h0l-.11.07h.02s0,0,0,0c-.11.13-.11.3-.15.51-.04.25-.07.5-.1.75-.02.14.03.29.18.21h0s.02,0,.02,0l.1-.06c.09-.05.14-.14.25-.16.13-.04,2.11.15,1.98.22.11-.06-1.46.84-1.95,1.13-.23.13-.5.24-.7.42-.14.13-.21.98-.25,1.2-.09.4.16.33.16.33l.51-.33c.18-.08.38-.06.59-.04.99.06,3.84.26,3.9.33l.1.19c.02.28.24.31.24.31.21.07.22-.3.23-.44.04-.35.11-.71.09-1.05-.02-.17-.28-.02-.28-.02-.03.03-.09.29-.24.31-.15.03-.37.04-.56,0-.35-.04-2.48-.22-2.57-.4.71-.4,3.74-2.1,3.74-2.11h0s.04-.03.04-.03c.25-.18-.43-.22-.48-.22M15.49,53.09l.04-.03.17-.09-.21.12"/>
    <polyline class="st0" points="15.43 55.97 15.3 56.05 15.43 55.97"/>
    <path class="st0" d="M76.4,29.45c-.24.3-.51.44-.86.64h0s-.24.17.23.41c.24.12.46.29.66.46.42.37.48-.04.5-.14.06-.3.01-.6.21-.86.52-.73,1.05-1.46,1.56-2.2.07,0,.03.44.02.59-.06.51-.35,3.15-.43,3.95-.03.33.25.52.47.49l.15-.1c.15-.25.16-.58.32-.84.06-.09.15-.17.21-.25.67-.74,1.33-1.49,2-2.25.19-.22.36-.39.67-.44l.36-.13c.07-.06.09-.15-.03-.28-.26-.27-.64-.44-.85-.75-.1-.14-.27-.17-.25-.18-.02.01-.34-.05-.21.36.08.27-.04.62-.19.85-.3.4-.58.8-.87,1.2-.11-.16.1-1.93.14-2.48.02-.33.14-.81-.13-1.06-.18-.17-.97-.74-1.18-.78l-.19.09c-.06.09-.04.2-.04.31,0,.17-.02.34-.07.51-.05.22-.17.39-.31.57-.3.35-1.54,1.89-1.87,2.3Z"/>
    <polyline class="st0" points="16.08 50.35 16.06 50.35 16.04 50.36 16.08 50.35"/>
    <path class="st0" d="M21.18,51.25c.04-.28.09-.55.17-.82.03-.14.11-.26.14-.4.07-.27-.07-.28-.2-.22-.02,0-.51.22-1.07.06-.56-.13-2.99-.59-3.43-.95-.14-.12-.4-.52-.61-.45h0s-.1-.06-.26.7c-.08.41-.18.81-.22,1.22-.01.16.11.13.17.11.16-.04.19-.21.35-.2.16,0,3.37.56,4.04.85.25.11.41.35.61.53.17.15.3-.31.32-.43ZM16.04,50.35l.04-.03-.04.03Z"/>
    <path class="st0" d="M89.02,46.18c-.26.18,4.12.15,4.04.18-.1.04-5.21-.07-5.05.27.1.25.18.51.24.76.04.14.2.81.4.69.2-.1.29-.37.5-.52.13-.06.26-.11.39-.16,0,0,3.01-1.08,3.52-1.22.16-.04.25.08.38.06,0,.01.26.04.08-.44-.1-.26-.19-.52-.28-.78-.05-.21-.03-.73-.37-.56h0s-.26.25-.26.25c-.04.03-.54.32-.64.36-.56.21-2.96,1.11-2.96,1.11ZM89.03,47.64l.06-.04h0l-.07.04ZM89.12,47.58h-.01s.01,0,.01,0Z"/>
    <path class="st0" d="M28.53,28.71c.21.02.35.17.48.3.79.75,1.68,1.49,2.31,2.38.17.25.3.54.36.84.09.44.44.09.44.08h0c.42-.41,1.15-.87,1.19-.9.07-.04.32-.25.08-.38h0c-.27-.01-.51-.12-.71-.3-.6-.64-2.3-2.42-2.5-2.69-.17-.24-.18-.53-.31-.79l-.15-.06h0s-.64.34-1.38,1.13c-.07.08-.17.13-.19.25-.02.14.31.13.37.14Z"/>
    <path class="st0" d="M80.21,33.44c-.1.77.37,1.52,1.07,1.88,1.06.54,2.33-.27,3.07-.97.53-.53,1-1.14,1.15-1.89.15-.82-.4-1.56-1.1-1.95-1.11-.6-2.37.25-3.14.98-.54.52-.96,1.2-1.05,1.94ZM82.56,32.13c.31-.27,2.07-1.8,2.19-.67.04.37-.34.78-.55,1.05-.36.44-.79.84-1.19,1.25-.13.12-.27.27-.42.41-.14.12-.27.23-.4.31-.11.07-.25.12-.37.14-.32.05-.61-.25-.72-.5-.14-.32.1-.66.28-.89.33-.42.76-.76,1.17-1.11Z"/>
    <path class="st0" d="M21.43,37.25c.43-.02.85.37,1.18.58.74.51,1.48,1.02,2.21,1.54.15.17.28.34.34.56.02.06.03.39.19.3h0c.1,0,.79-1.05,1.05-1.47.23-.37-.33-.29-.53-.37-.21-.1-.42-.25-.62-.36-.33-.19-1.09-.52-.58-.91.33-.13.84-.07,1.19-.08.58-.03,1.18-.08,1.74-.25.22-.07.53-.2.61-.44.1-.33-.42-.26-.58-.26-.23,0-1.74-.17-2.26-.25-.25-.05-.32-.03-.29-.27.02-.34-.13-.61-.38-.85-.5-.46-1.21-.5-1.78-.17,0,0-.48.27-1.44,1.76-.15.23-.3.45-.44.67-.26.41.13.27.41.27ZM23.76,37.11h-.04s.04,0,.04,0h0ZM22.36,35.83c.11-.16.22-.33.38-.45.42-.12.91.31,1.19.55.36.31.13.83-.13,1.14-.21,0-.48-.25-.62-.35-.24-.16-.47-.31-.7-.46-.14-.15-.24-.25-.12-.43Z"/>
    <path class="st0" d="M89.99,53.03h0s0,0,0,0l2.09-1.5.49.26c.42.16.92.08,1.32-.09.51-.23.82-.67.88-1.23.04-.51-.17-1.05-.3-1.53-.1-.37-.18-.74-.29-1.11-.06-.19-.11-.3-.25-.25h-.01s0,0,0,0h-.02s-.04.04-.04.04h-.02s-.04.04-.04.04h0s-.08.11-.08.11c-.06.14-.18.25-.32.34-.12.06-.25.1-.39.14-.18.05-2.67.63-3.24.77-.23-.01-.51.03-.65-.14-.11-.12-.62-.01-.43.28.29.47.21,1.1.36,1.6.03.11.26.03.42-.13.16-.16.35-.24.55-.31.23-.08,1.03-.36,1.23-.31.6.16-.24.76-.44.94-.47.43-.92.93-1.2,1.5-.1.22-.27.69.12.7l.22-.12ZM93.95,50.37l-.07.03.07-.03ZM93.65,49.25l.06-.03-.06.03c.28,0,.36.04.42.29.07.28.14.59-.1.8-.11.05-.24.1-.37.14l-.24.06c-.24.05-.47.05-.66-.02-.23-.08-.58-.72-.42-.96.45-.11.92-.2,1.38-.31ZM92.26,49.54h0s-.04.03-.04.03l.04-.03ZM92.2,49.57h.02l-.02.02v-.02Z"/>
    <path class="st0" d="M27,33.6s.92-.49,1.25-.68c.63-.31,1.24-.46,1.29.24.04.41-.32.79-.6,1.04-.49.43-1.13.55-1.76.68-.13.02-.25.06-.36.12h0s-.18.11.03.23c.29.16.62.27.94.39.1.04.45.24.57.18l.15-.1c.19-.34.42-.61.72-.86.34-.28.63-.53.83-.91.19-.36.27-.77.22-1.16-.09-.74-.76-1.25-1.5-1.23-.65,0-2.3.91-2.42.96-.33.13-.66.18-.89-.11-.24-.29.06-.81.36-.96.32-.15.71-.19,1.06-.23.29-.04.69-.02.94-.22.31-.24-.65-.59-.81-.67-.17-.07-.43-.16-.43-.15-.14-.09-.24.42-.46.54-.08.04-.88.57-1.04.71-.47.56-.7,1.44-.1,1.99.53.49,1.39.45,2.02.21Z"/>
    <path class="st0" d="M85.62,37.21c.14.55.19,1.16-.31,1.55-.95.41-1.34-1.08-1.36-1.73-.02-.42.17-.82.19-1.25,0-.19-.14-.25-.29-.17h.01s-.73.66-.98,1c-.16.21-.4.41-.15.61.4.32.58.63.73,1.11.24.78.97,1.25,1.81,1.2.47-.03.92-.3,1.27-.61.57-.53.71-1.26.58-1.99-.1-.54-.4-1.07-.41-1.62,0-.13.05-.24.15-.33.69-.26.94.84.96,1.32,0,.31-.04.62-.12.91-.02.08-.12.23,0,.24.28.03,1.14-.78,1.18-.8.31-.24-.21-.58-.33-.81-.08-.17-.13-.34-.23-.5-.05-.12-.14-.22-.21-.34-.36-.6-1.26-1.25-2-.84l-.21.13s-.58.48-.61.96c-.03.66.18,1.33.34,1.96Z"/>
    <path class="st0" d="M94.37,57.98s-.83-.03-1.12.25c-.48.47-.84,1.31-1.08,1.97-.2.54-.48,1.04-1.12,1.06-1.42-.52-.64-1.99-.12-2.39.4-.31.62-.5.87-.67,0,0,.22-.25-.03-.18l-1.79.33c.15.29.08.84-.09,1.31-.28.76-.05,1.77.65,2.2.4.25.93.3,1.39.24.79-.1,1.18-.63,1.52-1.29.41-.83.28-1.35.79-1.79.11-.09.24-.1.37-.11.72.18.38,1.33.11,1.72-.18.25-.97.77-.9.78.03,0-.17.26.12.22.29-.04,1.16-.3,1.22-.32.22-.12.1-.34.15-.59.02-.18.13-.79.15-.92.08-.68-.25-1.73-1.09-1.83Z"/>
    <path class="st0" d="M31.37,26.46c.44.16.71.4.96.76.29.44.59.87.9,1.31.25.36.49.71.73,1.07.06.17.09.34.1.52,0,.13-.08.28.08.36l.13-.07c.19-.12.37-.29.57-.43.3-.21,1.34-.97,1.47-1.23.3-.4.41-.87.33-1.45-.11-.9-.77-1.8-1.54-2.29-.66-.43-1.41-.29-2.09.01h.04c-.25.1-1.85,1.04-1.96,1.18-.08.13.2.23.28.25ZM33.16,25.47c.49-.22.88.17,1.16.53.37.47.67.99.98,1.49.28.44.61,1.01.1,1.41-.27.08-.37-.17-.52-.36-.23-.34-.46-.67-.69-1.02-.37-.54-.74-1.07-1.1-1.61l-.03.02.03-.02c-.23-.23-.15-.3.06-.44Z"/>
    <path class="st0" d="M41.51,20.93c.22.16.45.33.53.61.31,1.09.62,2.19.93,3.28.06.18.04.36,0,.54-.02.14-.15.26-.06.39.12.16.8-.15.93-.2.51-.18,1.03-.31,1.5-.58,1.45-.85,1.21-2.63.57-3.9-.28-.54-.68-.99-1.29-1.12-.73-.16-1.56.12-2.25.32-.31.09-.64.19-.9.4-.11.09-.06.18.04.26ZM43.42,20.61c1.09-.41,1.42,1.68,1.58,2.33.13.56.35,1.3-.19,1.69-.38.13-.41-.22-.49-.5-.11-.4-.23-.79-.35-1.19-.21-.65-.41-1.3-.62-1.95-.05-.16-.05-.28.07-.38Z"/>
    <path class="st0" d="M50.18,19.13c.1.14.13.3.17.47.1.44.19.9.25,1.36.09.65.11,1.31.14,1.97,0,.17,0,.34.02.51,0,.11-.09.23-.15.32-.11.2.21.24.33.23.72-.08,1.5-.09,2.18-.33.19-.06.36-.14.52-.25.12-.07.22-.15.33-.25.54-.52.72-1.3.72-2.02,0-.67-.12-1.44-.47-2.03-.28-.47-.79-.67-1.34-.74-.78-.1-1.66,0-2.44.11-.13.02-.65.13-.52.36.06.11.18.2.25.3ZM51.91,18.88c1.23-.36,1.13,2.06,1.13,2.69.02.56.1,1.21-.36,1.61-.34.11-.39-.27-.41-.53-.05-.43-.1-.86-.15-1.3-.07-.75-.16-1.5-.24-2.25l.03-.21ZM51.85,18.89h0s-.03.03-.03.03l.02-.03Z"/>
    <path class="st0" d="M37.46,23.67c.11.61.17,1.22.23,1.84.03.47.06.94.09,1.42,0,.29.02.55-.09.83-.06.14-.23.31-.19.47.03.11.29,0,.29,0l.1-.07c.29-.24,1.08-.55,1.14-.57.12-.06.23-.13.22-.25-.02-.16-.41-.32-.5-.47-.12-.17-.18-.58-.04-.74.24-.11,1.04-.46,1.22-.48.14-.02.49.47.49.53,0,.1.05.19.04.3-.02.16.02.29.2.26.15-.03,1.71-.77,1.72-.77.31-.19-.38-.35-.48-.43-.24-.21-2.1-2.23-2.71-3.03-.13-.18-.16-.45-.18-.67,0-.12-1.02.2-1.14.24-.08.03-.7.34-.77.43l.17.35c.14.23.15.55.2.81ZM38.6,26.18l.03-.02-.03.02ZM39.25,24.87c.12.14.23.26.07.37-.04.02-.51.22-.62.25-.11.02-.21.03-.29,0l-.08-.42c-.04-.41-.12-1.3-.12-1.34.27.09.91.99,1.03,1.13ZM38.26,27.89c-.16.09-.29.2-.43.31.09-.08.24-.19.43-.31Z"/>
    <path class="st0" d="M86.64,41.33c-.34.03-.61-.11-.91-.05l-.18.05c-.15.09.1.33.14.39.1.14.25.54.28.61.07.18.26.15.41.05l.34-.32c.23-.1.47-.17.7-.22.22-.04.31.03.39.2.11.25.24.5.35.75.07.16.16.29.12.46-.03.13-.78.61-.95.65l-.27.03h0s-.16.06-.13.21c.03.16.15.3.23.44.14.24.18.56.27.82.2.53.45.32.44.32.07-.07.08-.16.14-.27.17-.32.5-.58.77-.82.78-.73,2.47-2.25,2.52-2.29.02,0,.66-.07.71-.2h.01s.01-.01.01-.01h-.01c.29-.22-.66-1.38-.66-1.65,0-.19-.22-.17-.21-.18-.03.01-.21.03-.51.46l-.35.09c-.97.21-3.42.43-3.65.46ZM86.68,42.09h0s0,0,0,0h0ZM91.32,42.35h.02s.02-.02.02-.02h.03s-.06.03-.06.03h0ZM91.3,42.36h0s-.03.01-.03.01h.02ZM89.09,42.63h0s.05-.03.05-.03l-.05.03ZM89.16,42.6h-.01s0,0,0,0l.02-.02v.02ZM88.63,41.65c.16-.05,1.21-.04,1.22-.05,0,0,.24.07.08.24l-.83.78h-.2c-.13-.15-.17-.41-.24-.59-.04-.14-.16-.28-.03-.39Z"/>
    <path class="st0" d="M18.5,42.14l.18-.09c.1-.07.16-.09.34-.07.42.04.83.33,1.19.53.65.36,1.3.71,1.95,1.08h0c.15.11.63.4.69.48.09.13.04.31.23.35l.18-.09h0s0,0,0,0l1.69-3s-1.21-1.74-1.55-1.15c-.11.18.19.54.25.72.1.26.11.54.08.81,0,.25-.04.79-.23,1.03-.17,0-1.7-.85-1.77-.89-.03-.01.13-.54.5-.62.16-.04.49-.05.55-.15.2-.27-1.15-.81-1.5-.9-.3-.07-.1.61-.06.71.03.08.11.39-.08.67-.38-.19-1.41-.7-1.54-.75-.12-.06.35-1,.6-1.05.27-.06.76-.16.92-.26.22-.14-.04-.3-.18-.33-.25-.04-.51-.06-.76-.12-.15-.04-.29.05-.29.05-.27.19-1,1.8-1.2,2.22-.06.13-.55.86-.18.83ZM21.26,41.49l-.06.06.06-.06ZM18.79,41.97l-.13.08.13-.08Z"/>
    <path class="st0" d="M73.84,24.52c-.4.66-1.66,2.71-1.95,2.94-.54.07-.49.2-.51.22-.22.21.45.37.57.43.57.28,2.13,1.21,2.36,1.37.13.07.26.2.41.24.02,0,.31-.02,1.22-1.06.11-.12.36-.42.01-.38-.25.03-.49.22-.73.28-.49.11-1.07,0-1.49-.22-.39-.2-.29-.39-.12-.65.27-.47.56-.93.84-1.4.16.05.28.14.4.27.24.25.3.45.34.77.02.21.17.32.34.16.22-.22.31-.62.43-.89.08-.16.35-.69.16-.73-.14-.03-.4.09-.53.13l-.31-.06c-.24-.06-.38-.05-.52-.26.27-.41.53-.84.84-1.23.29-.02.64.42.76.62.17.25.28.53.36.81.08.26.35.21.36.21.08-.03.17-.1.2-.22.08-.22.3-.82.3-.92-.01-.12-.38-.27-.48-.33-.74-.47-1.46-.95-2.22-1.41-.1-.07-.77-.4-.75.01,0,.14.05.27.04.41-.03.29-.19.6-.34.85ZM71.85,27.49l-.1.03.11-.05h-.01ZM71.89,27.47"/>
    <path class="st0" d="M89.9,55.96c.01.28-.03.59-.02.87,0,.14.02.11.06.25l.13.05s1.13.15,1.35.19c.32.06.41-.16.21-.25-.77-.33-1.23-1.22-1.28-1.68-.06-.42.15-.44.48-.46.56-.04,1.11-.08,1.66-.13.05.16.04.3,0,.48-.08.33-.2.43-.45.63-.17.14-.13.33.1.28.32-.06.97-.27,1.26-.29.3-.02.14-.19.14-.2-.56-.46-.44-.7-.47-.78-.09-.22-.01-.2.23-.21.5-.01.99-.09,1.5-.08.19.22.04,1.08-.06,1.3-.11.28-.4.41-.56.65,0,0-.27.34.21.29l.95-.28c.09-.08,0-.26,0-.36-.02-.86-.08-1.68-.14-2.54-.02-.42-.07-.61-.08-.62-.06-.07-.15-.09-.29,0-.12.08-.2.19-.33.26-.27.14-1.5.03-1.75.19-.32.21-2.2.33-2.56.23-.11-.08-.1-.15-.29-.22h0c-.31-.06-.24.5-.22.63.09.6.18,1.18.21,1.79ZM90.2,53.77,90.18,53.75h-.03s-.07-.07-.07-.07l.1.07ZM89.92,53.54h0s-.01,0-.01,0h0Z"/>
    <path class="st0" d="M16.55,47.73c.09-.1.06-.08.11-.13.13-.03.29-.02.42-.02.26,0,4.32-.14,4.44.05.29.42.45.12.46.1.17-.28.26-.67.37-.97.03-.09.27-.56.16-.62-.1-.05-.29,0-.38.01-.23,0-.39-.04-.58-.17-1.02-.72-2.12-1.43-3-2.3-.08-.09-.18-.18-.23-.3-.08-.14-.16-.55-.31-.46-.35.19-.64,1.28-.64,1.47,0,.16.3,0,.3,0,.44-.13,1.22.58,1.53.79.16.12,1.32.82,1.09,1.1-.15.05-2.29-.03-2.52-.04-.3-.01-.48-.12-.72-.26-.15-.09-.24.05-.26.06h0s0,0,0,0c-.07.05-.41,1.35-.48,1.56-.02.08.1.24.25.12ZM17.72,44.34l-.05.03.05-.03ZM16.62,47.61h0s-.04.04-.04.04l.03-.04Z"/>
    <path class="st0" d="M61.23,27.8s.16-.13.05-.19c-.61-.33-1.05-.88-1.54-1.36-.24-.24-.49-.48-.74-.72l-.35-.28c0,.05.48.68.7.94.55.62,1.18,1.16,1.89,1.6Z"/>
    <path class="st0" d="M58.24,29.35c.16.18.53.37.79.23l.25-.19c-.34.12-.6-.11-.81-.34-.22-.23-.43-.44-.71-.61-.17-.11-.71-.35-.89-.1h0c.17.18.34.54.35.77.02.29,0,.66.35.72.21.04.64-.14.66-.16h.01c-.42.16-.74-.07-.68-.49.04-.41-.25-.61-.28-.64.33.22.39.14.95.8ZM59.15,29.47h-.02s.02,0,.02,0Z"/>
    <path class="st0" d="M65.92,49.22h0c.43.43.9.81,1.45,1.09.69.34,1.51.37,2.2.03,1.11-.55,1.36-1.76,1.5-2.38l-.22.12c-.16.53-.75,1.87-2.41,1.95-1.57.07-2.51-.82-2.52-.81ZM69.56,49.79h0s0,0,0,0Z"/>
    <path class="st0" d="M64.07,48.05c.02.63.55,1.12,1.03,1.48h0s.13-.06.13-.06c0,0-.92-.74-.93-1.57l-.24.15Z"/>
    <path class="st0" d="M70.92,55.28c-.43-.47-1.92-.76-1.97-.77.58.2,1.4.46,1.76.96,0,0,.02.97.05,1.63.04.7-.19,1.5-.79,1.94l.25-.14c.87-.66.88-2.01.78-2.98-.06-.62.38-1.09.91-1.43-.34.2-.73.46-.97.79Z"/>
    <path class="st0" d="M64.77,54.24c.57-.21,1.21-.32,1.81-.27l.25-.15c-.61-.05-1.25.06-1.82.27l-.25.15Z"/>
    <path class="st0" d="M74.63,65.95l-.36.19s.02.06,0,.31c-.02.39-.4.66-.41.67.79,0,.81-.87.76-1.18"/>
    <path class="st0" d="M75.5,63.03l-.25.14c.06.57.02,1.14-.26,1.66-.09.15-.2.3-.31.42l-.14.12s-.04.03-.06.05c-.01,0-.02.01-.02.01,0,0,.15-.08.17-.09.8-.48.95-1.48.87-2.3"/>
    <path class="st0" d="M73.09,59.7l-.25.14c1.36.19,2.43,1.25,2.65,2.54,0-.03-.27-2.7-2.4-2.68Z"/>
    <path class="st0" d="M74.42,63.95l.1-.34c-.46-2.25-3.8-2.33-3.87-2.34,1.74.42,3.01,1.02,3.78,2.67Z"/>
    <path class="st0" d="M71.75,59.69c-.92-.02-1.62-.07-2.76.21-.13.03-.27.06-.39.11-.13.05-.48-.05-.62,0-.29.07-.44.31-.5.34.14-.08.63-.32,1.09-.17.13.05.87-.36,2.94-.34l.25-.14Z"/>
    <path class="st0" d="M55.01,64.77c-1.18-1.3-2.37-2.61-3.54-3.9l-.08.05-.05.03c1.06,1.37,2.24,2.7,3.4,3.99l.03-.02h0,0s.01,0,.01,0l.09-.05.02-.02h0s.09-.06.09-.06l.03-.02-.03.02h0s.03-.02.03-.02Z"/>
    <path class="st0" d="M59.65,62.99c-1.02.02-1.93,0-2.96.04-.25,0-.96.1-1,0-.12-.25-.26-.48-.41-.71-.64-.97-1.38-1.9-2.13-2.79-.47-.57-1.35-1.19-2.13-.8-.24.11-.32.35-.49.55.05-.07.64-.39.85-.45.59-.13,1.24.51,1.59.93.74.9,1.47,1.81,2.09,2.76.14.21.27.43.38.65.05.11.03.13.14.13.25,0,.74.12,1,.11,1.03-.03,1.92-.02,2.96-.04,1.65-.04,3.51.03,5.01-.23l.11-.21c-1.68.04-3.33,0-5.01.04Z"/>
    <path class="st0" d="M64.19,63.83c-.84.01-1.68.02-2.53.03l-.25.15c.84-.02,1.69-.02,2.53-.04l.25-.14Z"/>
    <path class="st0" d="M59.74,64.33c-.95.02-1.9.02-2.85.04l-.25.14c.96-.02,1.9-.03,2.85-.04l.25-.14Z"/>
    <path class="st0" d="M55.49,64.98c.63,0,1.25-.02,1.87-.03l.25-.15c-.63,0-1.25.02-1.87.03l-.25.14Z"/>
    <path class="st0" d="M55.97,65.24l-.25.15c3.24.08,6.5.17,9.75.26l.25-.14c-3.25-.09-6.51-.18-9.75-.27Z"/>
    <path class="st0" d="M63.21,65.18c.68,0,1.36-.01,2.05-.02l.25-.15c-.68,0-1.37.01-2.06.03l-.25.14Z"/>
    <path class="st0" d="M53.15,75.4l.25-.14c-1.27.47-2.78.14-3.99-.41-1.48-.67-2.86-1.66-4.02-2.77-1.2-1.15-3-4.16-3-4.16.56,1.54,1.51,3.1,2.68,4.24,1.17,1.15,2.57,2.14,4.07,2.83,1.21.56,2.74.88,4.01.41Z"/>
    <path class="st0" d="M61.7,80.57l-.43.18c.1.07.22,0,.34.27.12.27.05.84-.03.9.02,0,.52-1.06.12-1.34Z"/>
    <path class="st0" d="M59.07,88.51s1.85-.5.71-1.68l-.4.49c-.14.12.07.2.18.11.01,0,.23.27.1.55-.14.27-.6.54-.6.54Z"/>
    <path class="st0" d="M54.65,78.88c-.17-.16-.41-.04-.64-.07-3.9-.29-6.76-2.32-6.78-2.31,1.36,1.47,3.27,2.41,5.26,2.82,1.81.36,2.31-.3,2.16-.43Z"/>
    <path class="st0" d="M48.61,75.44c.62.38,1.97.75,2.59.9-1.23-.36-3.96-1.88-3.97-1.89.43.36.9.69,1.38,1Z"/>
    <path class="st0" d="M58.6,79.2c-.29,1.34-1.87,2.01-1.89,2.02,1.55,0,1.95-1.25,1.89-2.02Z"/>
    <path class="st0" d="M49.82,81.6s.21-1.15-1.17-2.67c-2.15-2.39-4.33-6.3-4.32-6.28.41,1.1,1.39,2.95,2.33,4.28.52.74,1.15,1.38,1.71,2.1.47.62,1.1,1.36,1.16,2.18-.27-.31-2.05-2.49-2.52-3.24-.58-.92-1.12-1.86-1.61-2.84,0,0,.77,2.01,1.32,2.91,1.63,2.67,3.02,3.51,3.11,3.56Z"/>
    <path class="st0" d="M44.05,77.71c.15.82.21,1.64.33,2.45l.09-.05.03-.02c.07-.07.01-.45.01-.54-.01-.27-.02-.54-.04-.82-.04-.54-.11-1.07-.2-1.61-.18-1-.45-2.04-.96-2.93h-.03c-.11.08-.24.14-.34.21l.04-.03-.04.03c.34.4.51.91.67,1.4.19.63.32,1.27.44,1.91Z"/>
    <path class="st0" d="M49.04,81.85c-.84-.35-1.73-.59-2.66-.61-.68-.01-1.34.25-1.32.24-.01,0,2.27-.12,3.64.58l.34-.21Z"/>
    <path class="st0" d="M52.75,81.28l.25-.15c-.56.21-2.87-1.23-2.87-1.23.32.28,2.03,1.6,2.61,1.38Z"/>
    <path class="st0" d="M49.97,65.5c.12.05.47.27.47.27l.18-.05s-.83-.88-1.49-.86c-.23.01-1.15.45-1.17.46.67-.14,1.38-.12,2.01.19ZM48.09,65.23"/>
    <path class="st0" d="M68.36,63.82c.18-.13-1.74-2.15-3.02-2.66l-.1.05c2.14,1.27,3,2.67,2.98,2.68l.13-.06Z"/>
    <path class="st0" d="M70.64,66.53c.26-.77-.1-1.67-.67-2.29,0-.01.79,1.34.42,2.44l.24-.15Z"/>
    <path class="st0" d="M70.39,63.47c-.1-.17-.44-.4-.66-.42l-.12.07s.7.79.78,1.05c.03.09.21-.33,0-.69Z"/>
    <path class="st0" d="M44.22,30.2c-2.14.75-3.8,1.49-5.08,2.1-2.44,1.15-5.68,3.63-7.07,4.65,1.93-1.36,8.9-5.99,16.12-7.59l.13-.04c1.43-.39,1.59-.72,1.48-.88-.02.02-2.55.8-2.84.88-.93.26-1.84.56-2.74.87"/>
    <polyline class="st0" points="47.71 29.83 47.65 29.88 47.71 29.83"/>
    <path class="st0" d="M32.81,35.54h0s0,0,0,0h0c6.44-4.6,14.08-7.59,16.43-8.17-3.2.78-6.33,2.05-9.26,3.53-1.35.69-7.03,4.02-7.17,4.64ZM46.73,28.12c-.65.22-1.3.45-1.93.69-.7.26-1.39.54-2.07.83,1.3-.57,2.64-1.08,4-1.52Z"/>
    <polygon class="st0" points="36.56 32.78 36.67 32.73 36.71 32.7 36.56 32.78"/>
    <polyline class="st0" points="46.47 34.67 46.41 34.7 46.47 34.67"/>
    <path class="st0" d="M56.57,50.81c-2.33-.37-6.6-.17-6.63-.13,2.09.04,6.56.12,6.63.13Z"/>
    <path class="st0" d="M57.08,49.68h.07s-.07,0-.07,0Z"/>
    <path class="st0" d="M36.68,50.23h0M38.79,49.84c-.58,0-1.16.05-1.74.17l-.25.14h0s-.06.04-.06.04l-.06.04h0c.23-.04.45-.08.68-.1l3.37.02c.18,0,.37.02.56.04.19.02.47.09.7.09.08,0,.15,0,.21-.03l.19-.13.07-.04.06-.04-.04.02.04-.02c-1.24-.13-2.49-.21-3.73-.21"/>
    <path class="st0" d="M82.12,67.87l-.25.15c-.06.84-.71,1.62-1.32,2.16l.25-.14c.61-.53,1.26-1.32,1.32-2.16"/>
    <polygon class="st0" points="51.62 89.22 51.76 89.13 51.78 89.12 51.62 89.22"/>
    <path class="st0" d="M87.13,62.47c-.16.18.37.55.72.61,0,0-.6-.4-.53-.59l-.19-.02"/>
    <path class="st0" d="M65.02,27.83c.04-.18-.31-.16-.38-.23-.09-.11.41-.09.3-.18-.21-.2-.51-.17-.75-.14-.13,0-.24.03-.3,0-1.6-.62-1.82-.81-2.38-1.29-.03-.19-.02-.36-.1-.54-.29-.66-1.32-.89-1.32-.89.26.23.51.45.73.72.22.27.27.57.36.89.14.48.93,1.2.92,1.18-.15-.25-.28-.5-.4-.76-.05-.11-.09-.22-.13-.34.83.74,1.75,1.66,2.81,1.86,0,0,.02-.05.04-.12.03-.09.09-.18.21-.09l1.27.67c.04-.36-.96-.4-.88-.73"/>
    <path class="st0" d="M66.87,29.7l.15-.14c.18-.3.25-.64.26-.98.03-.7-.29-1.39-.64-2-.34-.58-1.84-2.36-1.91-2.36h0c-.03.19.47.6.58.72.42.56.76,1.16,1.02,1.79.24.57.41,1.21.43,1.84-.38-.67-.94-1.26-1.44-1.81-.04-.06-.23-.04-.13.09.67.86,1.15,1.53,1.5,2.44h0s-.05.23-.05.23l.25.18ZM66.67,29.48h0s-.02.01-.02.01h.02Z"/>
    <path class="st0" d="M64.33,29.67c.1-.05.06-.41,0-.41v-.03c-.71-.21-1.38-.48-1.96-.93-.14-.11-.26-.24-.39-.37l-.15-.18-.18.02h0v.02c.54.7,1.18,1.35,2,1.72.15.07.51.25.67.16ZM64.3,29.23h-.02.02Z"/>
    <path class="st0" d="M62.63,29.55l.59-.02c-.57-.27-1.56-.85-1.9-1.29-.02-.01.09.54,1.31,1.32Z"/>
    <path class="st0" d="M64.74,29.11h0c.12.03.26.04.39.05.14.02.27.1.41.12.12.02.12-.23.12-.24-.04-.04-.48-.36-.84-.29,0,0-1.13-.2-1.51-.61h-.06c-.05.11.05.24.12.3.35.37.91.53,1.37.67ZM64.74,28.74"/>
    <path class="st0" d="M61.61,24.6l-.25.14c.22.12.48.19.73.19.08,0,.16,0,.23-.02l.25-.14c-.07.01-.15.02-.22.02-.26,0-.51-.07-.74-.19"/>
    <path class="st0" d="M62.14,25.08l-.25.14c.51.12,1.11.15,1.52-.23-.07.06-.91.17-1.26.08Z"/>
    <path class="st0" d="M63.47,25.82s-.21.34-.4.27l-.14.27c.35.1.56-.12.81-.54h-.26Z"/>
    <path class="st0" d="M63.02,26.66l.11.08c.35.02.71-.19.99.02.02.02.18.02.11-.19-.46-.55-.49-.22-.97-.05l-.24.14Z"/>
    <path class="st0" d="M66.59,33.29c.29.02.54.3.78.5l.08-.19c-.09-.22-.2-.68-.49-.7-.23-.03-.37.39-.37.39Z"/>
    <path class="st0" d="M67.22,30.44c0,.44-.06.88-.31,1.25l-.49.35c.8-.17,1.15-1.04,1.15-1.73,0,.05-.34-.18-.35.12Z"/>
    <path class="st0" d="M67.84,29.72c.2-.45.46-1.08.51-1.57l-.26.15c-.74,1.81-.25,1.43-.25,1.43Z"/>
    <path class="st0" d="M54.44,84.87l.51-.29c-.4-.03-1.28.27-1.65.65.12-.12.9-.37,1.15-.35Z"/>
    <path class="st0" d="M56.15,84.37c.23,0,.48-.05.69-.14.18-.08.99-.61,1.07-.76l-.48.23c-.12.21-.66.39-.79.38l-.5.29Z"/>
    <path class="st0" d="M57.4,84.51c.18.02.37,0,.55-.05.14-.04.69-.36.8-.48-.05.06-.62.28-.84.25l-.5.28Z"/>
    <path class="st0" d="M28.21,44.15c3.97-2.75,8.23-5.15,12.81-6.78,1-.35,1.99-.75,2.96-1.19.59-.27,2.6-1.41,2.93-1.76-.11.12-3.58,1.91-6.39,2.91-3.21,1.14-6.17,2.94-9.07,4.69-1.44.86-2.87,1.76-4.24,2.72.31-.22.69-.36,1-.58Z"/>
    <path class="st0" d="M46.05,34.14c-4.72,1.61-9.25,3.89-13.5,6.44-1.63.97-3.21,2.04-4.71,3.2.3-.23.71-.35,1-.57,3-2.33,6.3-4.2,9.75-5.82,2.01-.94,4.04-1.8,6.13-2.55.12-.03.23-.08.34-.11.35-.12.64-.46,1-.58Z"/>
    <path class="st0" d="M43.15,40.5c-.06.07-.97.54-1.26.71-.21.12-1.49.7-2.33.97-1.29.43-2.47,1.01-3.68,1.62-2.01,1.01-3.96,2.15-5.86,3.31-.93.57-1.85,1.15-2.75,1.76-.08.05.6-.31,1.02-.54.41-.24.85-.46,1.24-.73.58-.41,4.01-2.43,4.42-2.63,1.14-.55,2.3-1.02,3.5-1.42,2.24-.76,5.56-2.88,5.71-3.04Z"/>
    <path class="st0" d="M40.83,40.51c-1.62.55-3.2,1.24-4.75,1.97-1.73.81-3.41,1.73-5.05,2.69-1.82,1.04-3.59,2.12-5.24,3.4.1-.08,2.13-1.16,2.5-1.44.63-.5,1.29-.96,1.97-1.41.32-.22,3.02-1.66,4.28-2.22,1.24-.56,2.51-1.09,3.81-1.53.43-.15,2.38-1.4,2.49-1.44Z"/>
    <path class="st0" d="M26.55,77.69v-.04c-.12-.61-.95-1.72-.97-1.77l-.48-.73-.36.26c-.24.14-.57.17-.83.23-.62.13-2.86.32-3.34.35-.29.03-.56.05-.85-.05-.15-.05-.24-.25-.41-.2-.11.03-.09.12-.05.19,0,0,.49.53.61,1.15.01.04.79-.55,1.45-.21.12.23.8,1.41.76,1.76-.14.31-.79.78-.79.78l.02.12h0s.54.94.54.94c.02.04.23.35.31-.06.06-.31.41-1.02.64-1.24.22-.2.44-.41.64-.61l.25.24c.19.25.4.42.2.9-.22.52-.88,1.36-1.02,1.74-.08.21.41.87.41.87.14.12.18,0,.26-.17.37-.85,1.11-1.77,1.06-2.27l.05-.55c.31.06.98.01,1.18-.07.62-.27.83-.93.72-1.57ZM22.03,76.7l.44-.09c.42-.05,1.25-.15,1.25-.04-.1.27-.5.78-.55.82-.21.13-.34.37-.55.5l-.58-1.19ZM24.9,78.43c-.38.18-.94-.03-1.15-.34.34-.31,1.35-1.82,1.48-1.65.12.16.44.49.45.8-.03.42-.44,1.03-.78,1.19Z"/>
    <path class="st0" d="M27.77,81.52l.48.42s.37-.28.52-.57c.05-.14.42-.85-.41-1.31,0,0-.82-.86-2.18.19,0,0-2.35,1.49-1.97,3.11,0,0,.55,1.54,2,1.36,0,0,.56.01.8-.43,0,0,.07-.26.31.11,0,0,.3.21-.01.47,0,0-.36.59-.87.64,0,0-.39,0-.1.38l.64.7s.37.3.46-.1c0,0,1-1.35,2.71-2.67,0,0,.53-.66.57-.15,0,0,.08.89.43.46,0,0,.23-.37.45-.5,0,0,.39-.03-.03-.39l-1.77-1.72s-.18-.45-.56-.02l-.28.29s-.36.31.15.37c0,0,.46.04.61.51l-1.62,1.55s-.17.31-.4-.03l-.86-1.03s-.33-.44-.46.1c0,0-.07.63-.89.81,0,0-.44.08-.69-.51,0,0-.15-.3.52-.97l1.92-1.81s.35-.41.75-.16c0,0,.35.33-.23.9Z"/>
    <path class="st0" d="M28.61,87.32s-.43.36-.09.63l.42.42s.29.3.41-.1c0,0,.04-.28.37-.64l1.35-1.31s.14-.23.17.07l-.66,2.71s-.17.76.38.56l2.7-1.77s.31-.29.2.21l-1.15,2.64s-.19.28.1.49l.37.27s.39.27.46-.08l1.71-4.45s.3-.63-.28-.88c0,0-.29-.11-.8.24l-1.9,1.29s-.3.06-.27-.27c0,0,.39-1.27.47-1.56,0,0,.42-1.28.1-1.53,0,0-.35-.48-.69-.1l-3.37,3.16Z"/>
    <path class="st0" d="M36.68,87.27s-.45-.42-.61.14l-1.32,4.51s-.29.4.15.58c0,0,.32.12.33.24,0,0,.44.15.66-.13l3.52-3.45s.38-.29-.08-.49l-.44-.21s-.44-.27-.67.24c0,0-.02.36-.62.85l-1.06.91s-.24.17-.17-.14l.7-2.17s.38-.57-.38-.89Z"/>
    <path class="st0" d="M40.45,89.19s-.42-.32-.7.22l-2.06,3.95s-.53.48-.09.59l.41.21s.3.23.51-.13l2.01-3.99s.4-.55.09-.76c-.32-.21-.17-.09-.17-.09Z"/>
    <path class="st0" d="M47.76,93.82s.45-.78-.23-.73c0,0-.78-.22-.89.65,0,0,.02.4.13.68l.25,2.4s-.02.35.3.39c0,0,.33.13.65-.31l2.46-3.72s.39-.33-.15-.47c0,0-.54-.28-.72.01l-1.69,2.39s-.24.4-.12-1.29Z"/>
    <path class="st0" d="M53.04,93.92s-.12.43-.46.1c0,0-.47-.49-.75.06,0,0-.31.19.89,1.3,0,0,1.15,1.11-.26,2.35,0,0-.84.86-2.79-.29,0,0-.49-.13-.27-.58l.3-.45s.26-.5.63.04c0,0,.14.75,1.13.72,0,0,1.11-.19-.15-1.76,0,0-1.16-1.75.34-2.19,0,0,.82-.16,1.33.19,0,0,.29.09.05.52Z"/>
    <path class="st0" d="M46.9,91.65s-.32-.02-1.06-.31c0,0-.76-.48-1.1-.08,0,0-.52.76-.01.78,0,0,.41-.2.58-.13,0,0,.19-.12.08.37l-1.2,3.14s-.11.57-.72.04c0,0-.25-.22-.31-1.01,0,0,0-.77-.25-1.1,0,0,.55-.12.93-.64,0,0,.48-.69.22-1.51,0,0-.2-.53-.81-.74l-1.37-.6s-.64-.29-.5.29c0,0,.02.44-.21.87l-1.63,3.27s-.33.45.13.59l.63.29s.35.28.44-.14c0,0,.13-.75.39-1.21l.36-.8s.77.13.86,1.42c0,0-.14,1.62,1.02,1.89,0,0,1.32.48,1.76-.63l1.15-3.05s-.03-.42.26-.36c0,0,.12-.07.32.11,0,0,.44.21.43-.26,0,0,.11-.43-.4-.49ZM41.99,92.64c-.48.01-.22-.39-.22-.39l.66-1.35c.08-.38.31-.16.31-.16l.39.27c.37.4-.22,1.39-.22,1.39-.17.38-.93.24-.93.24Z"/>
    <path class="st0" d="M58,97.52s-.59.12-1.17-1.18c0,0-.19-.44-.56-.7,0,0,.82-.2.79-1.37,0,0,.12-.91-1.07-1.11l-1.5-.08-.46.15.08.12-.17,3.79s.05.33-.06.49c0,0-.36.48.2.49l.6.02s.51.11.45-.36l-.03-1.78s.53-.48.96.74c0,0,.73,1.85,2.1,1.17,0,0,.41-.26-.17-.37ZM56.01,94.44c.03.57-.44.76-.44.76-.49.27-.44-.18-.44-.18v-1.27c-.04-.33.51-.19.51-.19.52,0,.38.89.38.89Z"/>
    <path class="st0" d="M59.1,93.54s-1.94-.18-1.77,2.01c.18,2.21,2.28,1.76,2.28,1.76,0,0,1.14-.39,1.08-2.13-.05-1.45-1.6-1.64-1.6-1.64ZM59,96.71s-.65.19-.72-1.35c-.07-1.51.7-1.3.7-1.3,0,0,.81.1.8,1.18-.02,1.63-.79,1.47-.79,1.47Z"/>
    <path class="st0" d="M64.89,95.27s-.17-.75-.93-.95c0,0-.26-.04-.1-.3,0,0,.78-1.52-.76-2.08,0,0-1.67.33-1.94.07,0,0-.11.19-.33.22,0,0-.44.08-.07.59,0,0,.22.06.47,2.06,0,0,.25,1.57.22,2.06,0,0-.32.76.26.66,0,0,.19-.1,1.04-.18,0,0,1.24-.3,1.42-.39,0,0,.99-.25.73-1.75ZM62.09,94.11l-.11-.82c-.21-.94.36-.85.36-.85.81-.27.76.88.76.88.11,1.03-.6,1-.6,1-.58.22-.41-.21-.41-.21ZM63.86,95.94c-.05,1.04-1.01,1-1.01,1-.41.08-.39-.25-.39-.25,0-.45-.22-1.43-.22-1.43-.13-.61,1-.5,1-.5,0,0,.67.06.62,1.19Z"/>
    <path class="st0" d="M71.12,94.3s-.34-.09-.89-.84c0,0-.61-.74-1.05-.79,0,0,.84-.78.59-1.6,0,0-.07-1.24-1.66-.89l-1.09.3s-.32-.04-.16.56c0,0,.33,2.93.17,3.69,0,0-.67-1.03-.89-1.28,0,0-.97-1.47-.89-1.78,0,0,.18-.75-.26-.44,0,0-.62.34-.87.32,0,0-.5-.07.18.54,0,0,.34.14,1.06,1.35l1.53,2.4s.3.53.71.27c0,0,.39-.05.43-.5l-.04-2.3s.04-.61.73-.13c0,0,.17.11.88,1.02,0,0,.67,1.02,1.56.59,0,0,.46-.27-.05-.5ZM68.35,92.52c-.4.29-.34-.08-.34-.08l-.07-1.34c-.07-.56.41-.43.41-.43.52-.05.6.91.6.91.06.66-.59.95-.59.95Z"/>
    <path class="st0" d="M70.95,89.77s-.17-.33-.53-.02l-.24.43s-.13.45-.43.03l-.18-.42s-.2-.31.36-.41c0,0,1.66-.77,1.86-.91,0,0,.29-.36.56.04,0,0,.48.37-.02.56,0,0-.83-.08-.56.32l1.75,3.41s.67.41.32.7l-1.46.77s-.51.29-.63-.08c0,0-.23-.56.3-.67l.47-.12s.29,0,.04-.57l-.47-.89s-.06-.32-.41-.04c0,0-.63.57-.87.25,0,0-.49-.38.06-.71l.53-.34s.29-.05.02-.44c0,0-.5-.79-.45-.89Z"/>
    <path class="st0" d="M75.44,87.9s.04.61.52.18c0,0,.35-.4,0-.84,0,0-.32-.92-1.89-.23-1.21.5-.7,1.82-.7,1.82,0,0,.08.94,2.09,1.01,0,0,1.53-.07.94,1.21,0,0-.35.57-1.21.21,0,0-.9-.44-.87.57,0,0,.07.55,1.49.52,0,0,2.03-.21,1.66-2.13,0,0-.09-1.27-2.34-1.34,0,0-1.38,0-.86-.93,0,0,.96-.79,1.16-.04Z"/>
    <path class="st0" d="M77.07,86.14s-.1-.27-.36-.02c0,0-.29.33-.32.47,0,0-.18.42-.42.08l-.18-.4s-.17-.26.26-.55l1.7-1.34s.29-.35.59.06c0,0,.41.3-.02.6,0,0-.53.12-.62.31,0,0-.21.12.03.33l1.98,2.67s.22.29.61.44c.39.16.13.37,0,.56l-.38.31s-.48.41-.65-.13c0,0-.16-.65-.44-.93l-1.77-2.47Z"/>
    <path class="st0" d="M79.53,85.41s-.42-.25-.62.11c0,0-.58.45.22.74l2.78,1.24s.17.25.46.02l.34-.26s.24-.13.05-.66l-1.56-3.74s-.22-.35-.23-.98c0,0-.03-.61-.42-.14l-.58.52s-.45.53.04.66c0,0,.29-.12.49.51l1.3,2.9s.12.19-.15.14l-2.12-1.05Z"/>
    <path class="st0" d="M85.9,81.64s-1.58-1.81-2.77-1.8c0,0-.93-.11-1.54.72,0,0-.21.43-.38.41,0,0-.46.38.18.65,0,0,.73.25,2.7,2.58,0,0,.17.02.28.65,0,0,.13.83.67.21l1.22-1.48s.61-1.04-.37-1.94ZM85.16,83.79l-2.6-2.39c-.67-.29-.19-.75-.19-.75.46-.43,1.24.2,1.24.2.88.5,1.72,1.6,1.72,1.6.49.73-.18,1.34-.18,1.34Z"/>
    <path class="st0" d="M83.38,78.29s-.41.4.23.61l3.62,2.59s.29.41.53.11l.28-.29s.31-.38-.13-.56c0,0-.31-.04-1.07-.55,0,0-2.06-1.6-2.45-1.81,0,0-.57-.81-1.02-.1Z"/>
    <path class="st0" d="M87.68,73.08s-.96-.48-1.12-.03c0,0-.29.33.29.77l.84.81s.37.32-.19.24l-1.1-.29s-.49-.28-.7.24c0,0-.35.28.3.89,0,0,2.23,2.11,2.28,2.41,0,0-.68-.18-3.15-1.2,0,0-.54-.63-.87.11,0,0-.37.48.37.7l4.16,1.48s.54.15.71-.2c0,0,.38-.36-.06-.82l-2.29-2.49s-.23-.18.14-.17l2.07.57s.53-.01.21-.38l-1.7-1.72s3.28.57,3.31,1.07c0,0,.39.42.5-.12l.17-.35s.35-.56-.4-.56"/>
    <path class="st0" d="M49.18,21.4c0,.41-.38.77-.82.77-.48.01-.85-.33-.84-.75-.04-.4.34-.8.83-.81.45.05.84.34.84.79Z"/>
    <path class="st0" d="M61.83,21.03c0,.41-.37.76-.82.77-.49.01-.85-.34-.84-.76-.04-.4.34-.81.83-.81.44.05.84.34.83.79Z"/>
    <path class="st0" d="M88.83,39.61c0,.41-.38.77-.82.77-.49.01-.85-.34-.84-.76-.04-.39.34-.8.82-.8.45.04.84.34.84.79Z"/>
    <path class="st0" d="M95.5,63.78l-.25.14c.36,2.19-.32,4.39-1.37,6.31-.28.48-.57.95-.9,1.4l-.06.06.09.31c0,.11,0,.22-.03.33-.06.31-.2.64-.38.91l.26-.14c.15-.25.27-.54.35-.83.07-.22.07-.43,0-.65-.03-.09-.04-.05,0-.12.34-.45.63-.93.91-1.41,1.06-1.91,1.74-4.13,1.37-6.32"/>
    <path class="st0" d="M87.38,71.04c-.08-.2-.31-.16-.25.14-.02,1.04.87,1.27.94,1.31.24.17.91,0,1.29.42l.11-.13-.57-.61v.29c.05.08-.36-.37-.67-.39-.13,0-.35,0-.46-.09l-.4-.94"/>
    <path class="st0" d="M88.09,70.48c.09.12.2.24.29.37.03.06.06.12.09.18-.04-.12-.09-.24-.15-.33-.04-.06-.12-.14-.23-.22M87.92,68.92c-.03.1-.06.21-.08.31.02-.1.04-.2.08-.31"/>
    <path class="st0" d="M88.46,71.03c.1.3.13.65.04.92h0c.09-.31.08-.62-.04-.92M87.84,69.23c-.06.33-.05.6-.22.94,0,0,.26.16.47.31-.03-.04-.05-.07-.07-.11-.2-.35-.25-.76-.18-1.14"/>
    <path class="st0" d="M88.17,68.78l-.25.14h0c-.04.11-.06.21-.08.31-.06.39-.02.79.18,1.14.02.04.04.07.07.11.1.08.19.16.23.22.06.1.11.21.15.33.12.29.14.6.04.92l.26-.14c.04-.13.06-.25.06-.37,0-.42-.21-.78-.5-1.13-.19-.23-.27-.53-.27-.84,0-.24.04-.48.11-.69"/>
    <path class="st0" d="M89.37,69.99l-.25.14c-.08.29-.15.58-.24.88l.25-.14c.08-.3.16-.59.24-.88"/>
    <path class="st0" d="M89.5,68.67c-.14-.84.43-2.04.81-2.65-.04.07-.93,1.23-1.08,1.93-.05.21-.04.65.02.86l.25-.14"/>
    <path class="st0" d="M88.62,66.83s0,0,0,0c0,0,0,0,0,0,0,0,0,0,0,0M89.79,65.3l-.25.14c-.45.37-.87,1.28-.92,1.39.3-.55.68-1.13,1.17-1.53"/>
    <path class="st0" d="M89.53,69.1l-.25.14c-.17.13-.31.33-.32.55l.13-.07.12-.07c.02-.22.14-.42.31-.55"/>
    <path class="st0" d="M21.84,67.38c.16.66.47,1.58-.53,2.08,0,0,.22.11.16.38,0,.04,0,.21.3.37,0,0,0-.57.2-.71.79-.57.24-2.03.08-2.17-.22-.2-.22.02-.22.05Z"/>
    <path class="st0" d="M25.81,69.4c-.11,0-.72-.25-.68.4l.44-.07.19-.16.04-.17Z"/>
    <path class="st0" d="M24.62,70.86l.22.1s.02-.54.03-.69l-.16-.02-.09.16s-.18.33,0,.44Z"/>
    <path class="st0" d="M23.35,71.94l.34-.27s.24.14.38.11c.12-.02.43-.49.57-.66l-.25.14s-1.04-.17-1.04.67Z"/>
    <path class="st0" d="M26.79,68.55c-.14-.02-.37-.06-.49-.01-.18.07-.31.26-.41.42.17.05.6-.18.38-.08.49-.15.49-.33.52-.33Z"/>
    <path class="st0" d="M26.5,67.06c-.1.04-.13-.14-.37.02-.21.15-.08.21-.18.25.18.04.32,0,.44-.06l.11-.21Z"/>
    <path class="st0" d="M24.47,65.47c-.26.29-.97.09-1.11.16-.24.12-.47.44-.53.72l.24-.04c.05-.12.27-.49.46-.47,1.03.12,1.12-.3,1.19-.51l-.25.14Z"/>
    <path class="st0" d="M26.6,64.48c-.02.16-.04.32-.06.48l.13-.07.12-.07c.02-.16.04-.32.06-.48l-.13.07-.13.07Z"/>
    <path class="st0" d="M27.02,65.82c.08.18-.1.38-.23.48l.25-.14c.14-.1.3-.3.22-.48l-.25.14Z"/>
    <path class="st0" d="M96.8,57.64h-.28c0,.19,0,.38,0,.57,0,22.28-18.12,40.47-40.73,40.75-.18,0-.36,0-.54,0-22.54,0-40.98-17.92-41.29-40.28,0-.19,0-.37,0-.56,0-22.29,18.12-40.48,40.73-40.77.18,0,.36,0,.53,0,22.54,0,40.99,17.91,41.3,40.28h.28s.28,0,.28,0c-.32-22.64-19-40.81-41.87-40.81-.18,0-.36,0-.54,0-22.93.3-41.28,18.73-41.28,41.3,0,.19,0,.38,0,.57.32,22.63,18.99,40.8,41.85,40.8.18,0,.37,0,.55,0,22.93-.29,41.28-18.73,41.28-41.28,0-.19,0-.38,0-.57h-.28Z"/>
    <path class="st0" d="M96.77,62.3c-.36.75-1.61,1.45-2.35,1.67-.68.19-1.3.42-1.99.51-1.56.22-2.72.56-3.98,1.5.05-.04-.1,0-.21,0,.23-.9.41-1.81.54-2.71.55-3.62.47-7.33-.19-10.95,0-.04-1.43-6.45-3.27-9.54-2.87-4.83-5.92-9.26-11.42-12.68-.19-.12,8.09,6.04,12.15,14.93-.13-.15-1.31-1.1-2.28-.3-.14.11-.52.97.18,1.41l.17.05h0c-.06.19-.03.39.13.48l-.02.02c-.51.68-.95,1.47-1.15,2.28-.13.5-.13,1.06.28,1.44.42.39,1.82.53,1.82.52,0,.04.61,6.15.62,8.61l-2.74,2.27c-.1-.19-.07-1.46-.07-2.01,0-3.13-.25-6.23-1.08-9.26-.33-1.22-.88-2.5-1.51-3.61,0,0,1,2.73,1.35,4.06.8,3.02,1,6.1,1,9.2,0,.58.06,1.24.06,1.82,0,.11.01.21.13.15.14-.06,2.87-2.44,2.92-2.45.1.34.24.6.62.64.24.03.54-.02.77-.07.41-.09.9-.2,1.38.13,0,.1-.01.2-.02.3-.39-.15-.95.26-1.08.19.52.28.75-.14,1.05.04-.02.2-.04.39-.06.59-.18-.13-.36-.29-.36-.29,0,0,.18.38.34.55-.03.24-.07.44-.09.67-.04-.03-.59-.27-.65-.64l-.22-.02c-.18.2.46.74.86.81-.05.4-.1.68-.16,1.02-.42.12-1.09.28-1.23.11.1-.03.52-.35.43-.33-.3.05-.8-.33-.8-.32,0,.16.07.32.09.47-.28-.05-.92-.08-1-.08-.16,0-.46.11-.56.23-.42.5-1.95,2.02-2.12,2.07-.11-.11-.06-.28-.01-.41.44-1.28-.13-1.95-.13-1.94.05.76-.18,1.48-.68,3.22-.14.49,1.26-.36,1.66-.81,1.43-1.6,1.81-1.26,1.83-1.28-.16,1.7-.55,3.38-.99,5.04-.21.81-.41,1.64-.69,2.41-.09.24-.19.48-.2.74-.01.64.86.43,1.36.24-1.9,3.75-4.58,7.11-7.85,9.95-.75.65-1.51,1.26-2.28,1.84-.87-.45.06-2.86.31-3.46.62-1.58,1.48-3.07,2.22-4.59.37-.76.68-1.54,1.09-2.28.94-1.75.97-2.2.95-2.21.27-.03.59-.14.83-.32-.03.18-1.1,2.66-1.6,3.75-.48,1.05-.99,2.09-1.51,3.12-.38.77-.85,1.48-1.27,2.24-.57,1.03-.96,2.23-1.12,3.4,0-.06.19.24.25-.14.26-1.98,1.58-3.53,2.47-5.28,1.07-2.07,2.08-4.29,2.8-6.5.14-.42.28-.86.29-1.3.01-.21.16-.29.31-.45.23-.26.48-.6.44-.96l-.24.14c.03.31-.16.6-.35.84-.07.1-.41.36-.39.48,0,.18,0,.31-.04.5-.03.01-.73.45-1.02.31-.16-.08-.23-.23-.37-.31-.46-.26-1.18-.07-1.6.17-.65.39-1.83,1.3-1.96.59.27.06.68-.18,1.16-.58.91-.76,2.75-.99,2.75-.99.05-.12.55-.31.55-.31-.59-.06-2.3.37-3.99,1.5.57-.52.8-.91,1.05-1.48-.07.05,1.81-1.04,2.53-1.73.44-.42.37-.03.65-.57.84-1.69,1.27-4.14,1.47-6.02.26-2.43.27-4.96-.14-7.38-.44-2.68-1.12-5.43-2.35-7.88.1-.05.21-.1.31-.16.13-.09.18-.4-.05-.31-1.68.67-4.62.82-5.31.74-.42-.04-.82-.07-1.12-.39-.11-.12-.9-1.78-.83-2.08,4.02.38,5.66-.98,5.93-1.76.17-.48-1.22-2.74-1.43-3.04h0c-1.95-5.87.76-5.99.85-6.02-.18.02-3.24-.36-1.49,5.1-1.51-2.22-3.22-3.7-3.22-3.7.27.49.28.46.39.72-.82-.37-2.72-1-2.81-1.01-.11-.2-.21-.41-.32-.63,1.92.84,2.37.22,2.45.2-.49.14-2.35-.52-2.79-.92-.26-.58-.75-1.71-.79-1.7.35.97.58,2.07,1.06,2.99-.11-.02-.22-.05-.32-.1-.23-.1-.84-.83-1.06-.93-.13-.06.15.5.02.44-.06-.03-.81-.94-.96-1-.14-.06.05.6-.09.54-.55-.21-1.8-.66-1.79-1.45.16-.05.32-.64.43-.95.41-.22.76-1.28.78-1.51l-.11-.05s-.28.48-.43.59c.03-.21.02-.42-.08-.57-.18-.27-1.51-.63-1.66-.67h-.32s.83.3,1.22.49c.71.35.35,1.39.34,1.45-.18-.28-.46-.52-.72-.68-.19-.12-.41-.3-.61-.38-.1-.04-.14.1-.15.09.22.17.69.61.74.64.24.25.46.52.53.76,0,0-.06.33-.13.49-.19-.35-.41-.67-.67-.96-.16-.18-.84-.8-1.83-1.2-1.11-.44-2.47-1.85-2.82-2.42.57.92,1.24,1.95,2.24,2.41.57.26,1.39.68,1.39.7-.23.83-1.22,1.43-1.56,1.33.47.13.99-.06,1.31-.32.25-.19.47-.47.63-.76.59.48,1.19,1.56,1.2,1.56-.07.28.33.82.51.98.82.73,1.96,1.09,2.99,1.44.79.27,3.71,1.15,4.32,1.44.04.07,2.28,2.82,3.05,4.36.21.41,1.02,2.53.98,2.57-1.41,1.29-4.97,1.26-4.97,1.26,0,0-.41-.82-.67-.69,0,0-.67-1.03-.77-.86,0,0,.7,1.32.54,2.64,0,0,.11.75.29.43,0,0,.01-.77.35-.33.13.25.36.82.38.89.06.36.79.75.8.75.22.94.62,1.87,1.14,2.74.15.43,1.19,2.47,1.47,3.09.28.61.32,1.31.43,1.96.17,1.06.79,6.75.79,6.75-.03,1.47-.21,3-.63,4.41-.21.7-1.07,2.54-3.61,3.12-.4.09-.83.05-1.25.07.84-.53,1.51-1.27,1.78-2.23-.02.06-1.47,1.99-2.64,2.26.43-.34.93-.87,1.6-1.84.21-.31.38-.68.57-1.01.33-.59.17-1.63.16-1.69.21.35.4.72.44,1.08,0-.04.18.25.2-.06.04-.63-.5-1.38-.89-1.86-.36-.43-.7-.9-1.09-1.3-.75-.78-1.79-1.38-2.89-1.57-.18-.03-1.29-.76-1.75-.95-.55-.23-1.13-.39-1.73-.46-.16-.02-.26-.11-.4-.19-.96-.58-2.51-.02-2.51,0-.58-.39-2.43-1.27-2.43-1.27.17-.75.55-1.47.91-2.16.35-.66,1.29-2.16,1.36-2.28,0-.02-.72-1.33-.84-2.26.65-.07,1.29-.38,1.85-.79-.07.05-2.9,1.36-4.19-.55l-.35-.2c-.12-.1-.19-.23-.24-.36-.05-.18.02-.38.05-.56.02-.09.42-1.87.48-2.31.15-.89-.49-1.8-1.22-2.29-.02-.02.7.72.93,1.63-1.09.16-2.06.87-3.05,1.25-1.27.5-1.93.95-3.15,1.33-.78.25-4.17,1.12-6.77.39-.05-.02-.85.07-1.42-.43-.31-.27-.31-.74-.32-1.13-.02-.5.8-2.53,1.2-3.32,1.22-2.46,2.96-4.7,4.81-6.75.32-.34.95-1.37,1.06-1.53.72-.64,2.01-1.3,1.95-1.27,1.01-.69,1.63-.8,3-1.02,0,0,.16.73.56.76,1.47.11,2.56.53,2.96.81h0c.45.51.73,2.51.76,2.8.01.12-.24.55-.57-.05.06-.2-.15-1.7-.83-2.44-.13-.13-.54-.34-1.03-.46.53.21.93.67,1.07.96.24.45.51,1.01.6,1.82,0,.09-.42.88-.86-.64-.16-.53-.55-1.23-1.12-1.3-.32-.04-1.25-.36-2.9.48.52-.27,3.25-1.03,3.63.76-.45.16-.93.19-1.38.2-.67.02-1.3-.13-1.99,0-.49.1-1.01.09-1.41.86-.49.96-1,1.93-1.45,2.9-.15.33-.27.64-.39.99-.19.52-1.03,2.01-1.18,2.26-.38.58-.7,1.19-1.15,1.72l.23.05c.63-.76,1.35-1.97,1.35-1.97.88-.41,2.37-1.35,2.99-2.09,1.38-1.63,2.9-2.71,4.81-4-.07.04.3.33.64.28l.25-.14s.83.83.92-.26c.05-.62-.34-2.02-.52-2.33.13.13.62.49.76,2.52,0,0,.46.2.64.8-.01-.04.13-.6-.34-.89-.17-.1-.16-.3-.15-.46.03-.54-.09-1.09-.36-1.57-.45-.79-1.23-1.32-2.08-1.57-.31-.09-1.11-.23-1.6-.25-.4-.01-.52-.32-.53-.7,0-.17.28-.23.24-.42-.04-.21-.21-.5-.25-.75h.01c.17.03.32.08.48.12.12.03.34.12.46.09.02,0,.06.04.12-.07.08-.11-.31-.27-.49-.32-.18-.05-.38-.05-.53-.19-.19-.17-.13-.56-.05-.77l.33.2c.48.15.76-.25.81-.44-.55.6-1.1.03-1.1.04-.01,0-.13.02-.3.2-.64.15-.52-.5-.45-.75.19-.66.53-1.27.74-1.93.1-.3.04-.66.04-.99.02-.81.73-2.19.82-2.34.08-.13.26-.17.28-.18.08,0,.48-.08.44-.26l-.89-.05-.25.16h0c.11.02.25.05.39.09-.16.15-.78,1.39-.91,1.78-.01-.47.22-1.58.21-1.69,0-.14-.1-.25-.12-.38-.06-.22.19-.36.37-.49,1.02-.67,2.23-1.1,3.44-1.26,3.35-.45,5.86.72,6.61,1.26,1.19.88,1.8,2.19,1.93,3.6-.31.63-.62,1.55-.9,2.17-1.01,2.32.45,2.83.45,2.84-.62-.42-.42-2.01-.19-2.87.16-.62.38-1.24.66-1.82,0,.02-.11,1.39-.05,2.08.07.83.02,2.36,2.56,2.7.33.11-.16-.92-.16-.92-.28-.76-.78-.68-.78-.68-.74-.13-1.12-.36-1.27-.46-.07-.29-.1-.58-.13-.87.26-.07,1.2.35,1.2.35.93.41.46-.61.46-.61,0-.73-.54-.54-.54-.54-.44.02-.91-.32-1.08-.45.02-.33.03-.67.01-1,.22-.1.72.16.72.16.67.4.46-.33.46-.33-.03-.48-.7-.51-.7-.51-.29-.04-.51-.18-.65-.32-.06-.22-.12-.42-.2-.62.59.34,1.18.27,1.51.09.02,0,.79-.4,1.48-2.01.16-.37.77-1.58.77-1.72,0-.15.6-.06.48-.37-.01-.13-.7-.35-.79-.4-.4-.21-.51-.1-.53-.1h.01c-.11.12-.04.26-.01.45.05.29-.76,2.27-1.2,2.92-.2.29-.42.56-.8.49-.34-.06-.81-.35-.7-.74.22-.54.96-2.34,1.11-2.71.24-.57.46-.68.47-.68h0c.39-.24-.36-.45-.52-.51-.31-.13-.58-.26-.89-.4-.22-.1-.45,0-.45,0-.14.13.02.37.03.53.01.15-.46,1.32-.64,1.76-.19.48-.61,1.55-.63,1.6-.29-.25-.62-.46-.97-.64l.09-.08c.29-.48.13-1.25-.28-1.61.82-.25,1.11-1.31.64-2-.46-.67-1.35-.72-2.08-.87-.29-.06-.59-.14-.88-.22-.14-.04-.54-.16-.58-.01h-.01s.02.24.02.24c.17.38.13.74.04,1.12-.21.78-.42,1.55-.62,2.31-1.15-.15-2.25-.03-3.3.27-.06-.12.07-.73.1-.91.01-.1.09-.38-.04-.43-.23-.11-.67.46-.81.6-.27.32-.6.52-1.01.64-.18.06-.64.21-.64-.11,0-.18.01-1.45,0-1.9.43-.08.78,0,1,.41.05.09.33.03.38-.06.06-.13.06-.95.01-1.2-.03-.12-.41.08-.45.11-.25.1-.81.13-.97-.06,0-.46,0-.92,0-1.38.19-.02.41,0,.57.02.35.02.69.15.95.37.2.16.32.38.54.34.02,0,.29-.08.14-.59-.06-.18-.11-.48-.26-.62-.09-.08-1.97-.16-2.36-.19-.36-.01-1.1-.17-1.39.13-.12.11-.03.22.07.3.2.15.23.43.26.65.05.38.07,2.96.06,3.07,0,.22-.18.87-.31,1.32-.07.21,2.35.04,2.8-.02-.36.16-.71.34-1.06.53-.34.19-.95.43-.91.97,0,.21.16.35.13.58-.05.28-.15.56-.18.85-.04.43-.03.88.03,1.31-.05.34.01.66-.02,1.01-.02.23-.48,1.17-.57,1.42-.12.36-.45.85-.17,1.21.24.31.75.2.77.18,0,0-.4.69.03.94-.11.24-.19.8-.09,1.03-.61.1-1.28.2-1.86.4-.57.2-1.13.57-1.63.89-.09.06-1.34.52-2.44,2.45-.07.12-.69.81-.89,1.05-2.03,2.35-3.89,4.97-4.98,7.85-.29.76-.78,2.05-.25,2.76-1.89-.07-3.77-.14-5.66-.18-1.01-.02-2.03-.04-3.04-.02-.63.02-1.32.28-1.32.28.95-.1,1.91-.07,2.87-.06,1.03.01,6.66.17,6.89.2.28.03.52.02.53,0,.42.37,1.02.26,1.53.4,1.02.28,2.19.34,3.26.27,1.09-.06,1.99-.14,2.74-.21,1.8.04,3.67.16,5.14-.08-1.38.02-2.75-.02-4.13-.05.14-.03,5.2-2.32,5.98-2.48,0,.15-.03.3-.07.45-.15.46-.36,1.7-.38,1.94-.01.17-.12.31-.12.48,0,.47.48.58.75.88.87.96,1.81,1.06,2.18,1.06.01.49.69,2.16.87,2.39.01.01-1.62,2.34-2.21,4.23-.13-.05-.75-.18-.76-.28-.11-.54-.43-1.05-.78-1.47-.23-.28-.49-.64-.88-.68-.28-.03-.57-.06-.85-.08-2.19-.22-4.38-.43-6.57-.64-.89-.08-1.87-.23-2.77-.32l-.26.19c.34.38.69.77,1.03,1.18-.58.02-1.21-.02-1.78,0l-.11.11h-.02c.25.21.46.47.69.71-.93.13-1.66.22-2.15,1.06-.05.09-.39.87-1.13,1.49-.33.28-.75.58-.7,1.15.03.22.26.25.5.22h0s-.02.02-.02.02c-.1.1-2.2,1.92-2.61,3.75-.27,1.22.37,3.66.47,4.14.12.58.62,4.48.51,6.04-.02.11.19,4.15.27,4.93.05.45.28.46.28.46.51.1,1.02.21,1.49.45.21.11.42.25.51.48.06.2.01.43.07.64.26.75,1.5.33,2.05.29.93-.06,1.87.23,2.8.25.19,0,1.64-.1,1.86.07.1.07.16.18.26.26.47.33,1.1-.12,1.14-.16.22-.2.83-.96.91-1.1.01.41.54,1.04.47,1.18-.02.04-1.29,1.19-1.41,1.71-.05.2-.1.41-.15.61-3.54-.15-12.7-.44-13.72-.47-.51-.02-.24.33-.24.33,3.52.16,12.51.27,13.91.31,0,.01-.17.46-.14.91,0,.07-1.34,1.27-1.57,2.74-.08.5.34.53.4.52-.07.03-.9.62-2.68.94-6.49-1.35-12.32-4.6-16.99-9.18-2.48-2.43-4.51-5.25-6.06-8.31-.07.09-.91.82-1.84,1.07,0-.29-.23-.59.26-.72.37-.09.32-.64.37-.73.06-.09.57-.37.79-.49h0c.16-.12.9-.94,1.15-1.16.25-.22.4-.56.47-.88.05-.26.16-.34.57-.41.41-.08.6-.65.62-.89.02-.21-.18-.53-.23-.74-.14-.45-.07-1.07.12-1.34.25-.38.69-.75.02-1.48-.2-.22-.09-.68-.08-.99.03-.46-.3-1.16-1.91-.03-.11.08-.25-.13-.41-.1-.16.02-.54-.04-.91.75-.09.2-.3.28-.53.21-.17-.06-.38.08-.55.16-.18.09-.43.13-.63.16-.08-.32-.15-.63-.22-.95-1.42-7.03-.55-14.3,2.7-20.74,2.1-4.16,4.56-8.1,8.23-11.08l-.25.15c-5.66,4.59-9.16,10.99-10.85,17.95-1.21,5-1.23,10.39-.06,15.39l.03.12c.31-.14,1.12-.86,1.21-.86,1.19.07,1.09-.43,1.28-.7.15-.22.32-.35.59-.3.23.04.36.04.59-.05.35-.14.83-.48,1.18-.42.29.04.19.28.08.81-.06.25-.05.5.26.66.42.2.29.54.11.88-.12.22-.35.38-.44.61-.12.33.12.62.12,1.14,0,.1.21.67.21.76-.02.29-.56.57-1,.54-.12-.01-.24.32-.24.41-.03.22-.03.44-.12.66-.13.33-.5.57-.8.76-.24.16-.33.42-.44.68.04.11-.54.34-.87.37-.56.05-.3.75-.34.85-.05.07-.32.24-.42.31-.24.14-.35.57-.4.87-.1.01-.22.02-.35.04-.08-.83.23-1.71.49-2.47.36-1.04.82-2.05,1.32-3.04.64-1.25,1.27-2.43,2.04-3.6-.05.07-.08-.15-.28.07-.76,1.15-3.49,5.83-3.61,6.45-.02.09-.27.1-.42.08-.1-.26-.13-.54-.02-.8-.03.06-.67.44-.12,1.19,0,.29-.21,1.1.22,1.35.08.24.25.84-.16.81-.36-.36-.59-.99-.63-1.43-.01-.17.17-.34.05-.59-.14-.3-.37-.53-.25-.83.05-.14.43-.85.17-1.1-.63-.6-.33-1.12-.05-1.55.14-.19.62-.29.45-.89-.05-.19-.1-.3-.16-.49-.15-.54.3-.89.75-1.16-.21-.3-.77-.62-1.08-.77-1.09-.49-2.19-.66-3.35-.84-1.36-.21-2.94-.76-3.73-1.91l.15.81c.41.62.84.76,1.49,1.1.45.25.88.4,1.34.5-.4.18-.85.36-.79.94,0,.05.06.69.06.84-.03.42-.08.64-.24,1.02-.18.41.21,1.04.42,1.4.03.04-.1.44-.12.56-.09.89.96,2.03,1.61,2.39.17.4.5.73.85.96.22.14.67.3.58.59-1.12-.47-2.18-1.25-3.12-2.12l-.12.49c4.23,4.75,8.59,1.71,8.9,1.42,2.61,4.84,6.49,9.03,11.16,12.09,3.56,2.33,7.47,4.23,11.65,5.13.09.52.37,1.06.95,1.16.35.07.63-.09.65-.1.26,1.27,2.3-.3,2.58-.56-.06.06-2.25,1.21-2.35.6-.04-.2.14-.32.25-.39.29-.19.9-.65.93-.67-.97.51-1.43.82-1.44.83-.41.05-.75.03-.93-.34-.13-.24-.03-.58-.02-.59.42-.06.83-.18,1.23-.28,2.01-.52,4.47-2.6,4.7-3.43,2.23-.85,5.18-1.24,5.32-1.37-1.65.04-3.95.42-6.7,1.63-.82.36-1.59.8-1.39,1.1.17.25.56-.15.56-.15.24-.41,1.67-.99,1.67-1-.04.09-.83,1.09-1.85,1.75-.09.04-.57.49-.87.06-.37-.54,1.09-2.36,1.25-2.5.23-.19.24-.24.25-.54,0-.15.22-.71.3-.81.15-.17.22-.45.29-.66.17-.43.43-.83.76-1.17.37-.41.46-.81.39-.95-.19-.4-.55-.88-.48-1.34-.15-.29-.45.04-.57.19-.22.27-.88,1.29-1.25,1.48-.13.03-.26-.11-.32-.22-.06-.1.12-.2.12-.29l-1.27.02c-.19,0-.96.13-1.85-.12-.6-.17-1.21-.19-1.83-.25-.5-.05-1,0-1.49.08-.13.02-.68.06-.66-.81,0-.27-.53-.45-.74-.55-.46-.22-1.33-.31-1.28-.34h0c-.22-.02-.24-.41-.27-.56-.07-.46-.16-3.41-.06-4.41.2-2.14-.29-4.24-.64-6.34-.15-.96-.45-1.98-.42-2.96.09-3.28,3.43-4.98,3.46-5,.94-.02,2.91-.04,2.95-.04-.44.14-4.68,1.58-4.04,5.09.28,1.54,1.06,2.99,1.91,4.29.94,1.44,3.41,3.91,3.42,3.91-1.48-1.66-3.02-4.14-3.76-5.42-2.67-4.57-.07-5.93.61-6.47,1.11-.89,3.21-1.34,3.24-1.36.13.93,1.49.63,1.49.63.24.25,4.17,4.31,4.27,4.31,2.36.06,1.28.15,6.24.28.47,0,5.53.07,5.84-.35.2-.28.02-1-.1-1.25-.25-.57-.63-1.07-1.01-1.57-.36-.45-.74-.89-1.13-1.31.79.42,1.41,1.26,1.93,1.89v-.16c-1.07-2.04-2.45-2.3-2.46-2.3h0c-.2-.18-.38-.37-.58-.56-.19-.19-.39-.36-.6-.52,1.05-.5,2.07.02,2.24.04.56.05,1.13.21,1.65.42.45.17,1.63.92,1.83.99.94.31,1.91.84,2.67,1.57.39.37.84.75,1.2,1.16.62,1.05.47,2.34-.33,3.34-.28.34-1.62,2.35-3.57,2.1-.68.02-1.36.03-2.04.03-2.2-.01-8.59-.46-9.56-.69-.94-.22-1.7-.64-2.3-1.37-.62-.74-1.37-1.35-1.97-2.1-.85-1.04-1.99-1.93-2.04-1.96,0,0,1.47,1.78,1.86,2.21.58.64,1.9,2.47,2.73,3.04v.27c-.06-.09-2.06-.64-3.64-2.93-.09-.12-.25-.1-.14.11l.67.94-1.11-.73s-.94-.31-.88.33c.06.62,2.73,1.24,3.7,1.92-.19.02-2.43-.77-3.52-.27-.77.34-3.86-.09-3.88-.08,2.48.95,3.72.46,5.58.4.52-.02.96.21,1.47.27.13.02.49,0,.65-.13.1.07.38.24.49.28h-.02s.02,0,.02,0h-.02c1.06,1.25,1.82,2.89,1.55,4.53-.23,1.43-1.68,2.34-3.07,2.53,0,0,1.95.36,2.96-1.03,1.09-1.52.25-3.94.24-3.96.93.91,1.34,2.19,1.14,3.49-.14.87-.37,1.77-.73,2.58-.08.18-.18.35-.3.52l-.16.2s1.26-.72,1.55-3.48c.02.14.04.29.05.43.11,1.15-.01,2.96.43,3.63,0,0-.22-1.79.01-3.15.24.24,1.55,1.54,1.62,1.67.26.53-1.15,2.17-1.16,2.57,0,.24.28,1.83.37,2.36.19,1.02.42,2.03.83,2.99.35.83,1.02,1.51,1.22,2.4.2.82-.15,1.68-.86,2.15-.09.07-3.34,1.84-3.5,1.97-.82.69-2.34.88-2.35.89,0,0-.65.48-1.07.41-.64-.09.08-.68.32-.89h-.02s-1.09.77-1.57.7c-.41-.07-.37-.31-.11-.49.39-.26.85-.65.85-.65-.04.02-1.18.73-1.47.8-.59.16-.7-.27-.7-.27-.06.08-.04.69.78.49.21.49.86.43,1.38.12-.09,1.09,1.8.13,1.86.09,1.33-.11,2.14-.81,2.44-1.08l2.67-.36c.23.32.72.14.88.09.01.36.48.52.77.62,1.15.37,2.21-.8,2.74-1.62l.08-.13c6.05-1.68,11.72-5.26,15.94-9.79,3.7-3.99,6.38-8.91,7.75-14.12.26-.17.48-.31.66-.43-.12.19-.09.35-.29.73-.16.35.15.06.15.06.4-.52,2.1-1.79,2.27-1.86-.19.45.14,1.38.07,2.02-.08.8-.34,1.49-.59,2.26,0,0,.01.04-.85,2.22-.22.58.53,1.38.58,1.41.04.02.08-.86.43-1.14,0,0-.08-.23-.03-.5.05-.2,2.04-4.72,3.15-6.37.6-.69,1.02-.83,1.6-1.07.36,2.17-.41,4.3-1.45,6.21-.27.47-.75.85-1.08,1.29l-.27-.05c-.01-.21.19-.42.35-.55-.07.06-.43.13-.58.55h-.14c.17-.38.49-1.4.84-1.89.41-.58.78-1.1,1.07-1.74.36-.81.67-1.85.94-2.7-.03.05-.12-.18-.27.15-.41.86-1.29,1.76-1.5,2.78.02-.07.16.22.25-.15.16-.68.27-.52.4-.42-.05.12-.11.24-.16.35-.13.31-.39.88-.58,1.16-.22.29-.9,1.25-1.08,1.55-.17.25-.26.55-.41.81-.34.64-1.1,1.17-1.12,1.87,0,0,.14.03.24-.14.41-.63.79-1.16,1.3-1.5h0c.32,0,.63.06.89.21,0,0,.39.39-.48,1.35-.3-.01-.59-.06-.89-.12-.64-.11-.56.26-.56.26,1.2.22,2.58.29,3.38-.7l-.07-.22c-.36.45-.85.74-1.38.78.17-.25.45-.55.52-.83.06-.21-.12-.39-.01-.58.15-.24.53-1.01.81-1.49,1.05-1.89,1.66-4.21,1.32-6.37.48-.23.92-.54,1.15-1.03l.1-.45ZM83.95,50.13l.33-.22.25.19c.17.6.41.38.56.56-.52-.01-2.14-.13-1.77-1.76.17-.77,1.03-2.1,1.03-2.1.23.05.44-.07.66-.09.26-.02.58-.06.75.15,0,.01-.11-.52-1.1-.27-.08.02-.44.11-.33-.33.14-.02.33,0,.41-.18.29-.57.79-.21.79-.22-.16-.34-.36-.41-.62-.26-.24.14-.25.41-.55.44-.52.06-.77-.55-.41-1.09.35-.54,1.3-.22,1.61-.02.25.15.48.34.69.55.47.95,1.65,4.74,1.99,6.68l-.24.06c-.38-1.43-1.48-2.71-2.92-3.22.79.38,2.43,1.95,2.68,3.31-.14-.31-2.45-3.52-3.9-2.66-.38.23.09.48.09.49ZM87.46,60.06c-.26.05-1.38.38-1.46-.54.02-2.45-.6-8.85-.76-9.59.23.14.45.31.66.49.4.34.8.67,1.14,1.15.1,1.09.35,2.68.42,3.76.07,1.19.26,2.85,0,4.73ZM87.93,59.99c.2-1.53-.27-7.06-.26-7.01,0,0,.41-.23.7.02.34,2.32.43,4.68.28,7.02-.23-.04-.48-.05-.72-.02ZM84.81,64.89l.26-.14-.26.14ZM58.7,38.21c-1.95.94-3.6,2.72-4.99,4.32-.56.65-1.4.97-2.22,1.32.07-.13,2.45-5.25,2.67-5.47.03-.02.58-.32,1.05-.31.64,0,1.28,0,1.91-.02.42-.02,1-.15,1.53-.02h0s.08.19.08.19h-.03ZM71.06,32.49s.34.87-.53.34c0,0-.48.13-.73-.93,0,0,1.11.13,1.26.59ZM69.4,29.75c.11-.03.74.24.74.24.6.07.43.39.43.39-.18.2-.96-.19-.96-.19-.56-.13-.21-.44-.21-.44ZM70.44,21.75h.02s-.03,0-.03,0h0ZM70.36,21.79l.05-.02-.08.06.04-.04ZM64.93,20.12,64.64,21.23c.06-.31.13-.63.18-.95h-.02s.02,0,.02,0l.07-.14c.29-.05.76.15.87.38.24.48-.01,1.22-.59,1.28-.2.02-.51-.01-.6-.21l.06-.37ZM64.34,22.33l.02-.02.05-.11c.24-.04.64.1.82.21.33.21.11.74-.02,1.06-.34-.11-.67-.21-1-.3-.02-.16.14-.76.16-.86l-.02.02ZM59.09,22.16c-.07.08-.15.17-.24.27.07-.09.16-.18.24-.27ZM20.43,65.72c.15.05.31.11.48.2.25.12.6.18.8.37-.04,0-1.21-.23-.54,1.66l.03.17c-.25-.46-1.02-1.94-.76-2.38ZM18.54,66.11c.02-.27.1-.52.26-.71.08,0,.9.13,1.21.2.02.37.17,1.44,1.18,2.55-.06.31-.46.56-.57.89-.16.53-.55,1.21-.51,1.7-.19-.12-.38-.27-.55-.39l-.09-.06v-.02c-.14-.64.74-1.06.82-1.86-.07-.02-.12,0-.25.15-.33.39-.77.97-.82,1.53-.22-.2-.45-.44-.58-.73-.02-.27-.06-.6-.09-.91.13-.38.52-.73.8-.98-.1.07-.54.11-.84.48-.01-.11,0-.2-.01-.29-.01-.52-.01-1.03.04-1.55ZM17.74,70.7c-.35-.21-.46-.83-.44-.88.06-.13.05-.3.04-.44,0-.25-.14-.83-.2-.91-.1-.15-.11-.35-.09-.52.02-.22.06-.36.16-.54.18-.33.14-1.2.13-1.21-.12-.14-.25.1-.25.15,0,0,.02.8-.13,1.17-.08.19-.17.3-.2.51-.04.28.16.49.21.73.12.57-.02,1.02-.04,1.14,0,.06.61,1.35.79,1.73h0s.02.27.02.27c-1.62-1.42-1.06-2.48-1.12-2.57-.08-.14-.15-.43-.21-.58-.13-.43-.1-.88.03-1.31.1-.32.24-.67.15-1.01-.23-.89.47-1.04.86-1.19.09.01.7.08.91.1-.11.27-.03.61-.06.9-.06.51-.25,2.72.07,3.5-.27.12-.69.53-.62.95ZM20.13,74.14c-.04-.82-1.32-1.11-1.38-1.15-.22-.16-.39-.36-.53-.58-.28-.44-.18-.9-.25-1.39-.11-.86.66-1.11.68-1.1h0s.03,0,.03,0c.28.24.32.37.62.58.25.18.57.43.9.58.1.23.18.2.2.6.02.42-.2.88-.16,1.29.04.43.24.98.6,1.3-.25-.03-.48-.08-.72-.14ZM53.55,81.28h.02s-.03,0-.03,0h0ZM42.36,80.52h-.02s.02,0,.02,0ZM44.7,61.09h.01s-.01,0-.01,0ZM66.25,64.65c.52,1.11.14,1.09.05,1.18-.09.09-1.01.13-1.01.13-1.01-.03-1.98.04-2.98.02-2.15-.05-6.97-.18-7.23-.19-.1,0-.15.01-.22-.05-.6-.61-1.19-1.21-1.79-1.82-.73-.73-1.44-1.47-2.16-2.2-.1-.1-.2-.29-.36-.25-1.26.32-1.32-.76-1.36-.75-1.68.01-2.98-.14-4.85.05-.28.03-.7.24-.96.2-.49-.07,0-.57.21-.75.4-.39.99-.83,1.16-1.38.1-.28.4-.57.6-.76,0,0,.52.29.81.34.39.07,2.47,1.16,3.01,1.51.03.02-1.98-1.5-2.73-1.65-.32-.06-.63-.16-.84-.38.45-.33,1.49-.36,1.47-.39.06.06,1.54,1.2,1.98,1.8.01,0-.96-1.23-1.49-1.72-.38-.33-.75-.66-1.14-.98.55-.01,1.07.04,1.63.02.04,0,.92.93,1.25,1.44.29.44.71,1.01.71,1.55,0,.08-.26.44-.24.7.03.44.36.44.47.8l.25-.15c-.1-.34-.48-.34-.47-.74,0-.27.21-.48.23-.73.08-.53-.43-1.18-.7-1.59-.58-.9-1.26-1.75-1.96-2.57,3.25.31,6.49.69,9.75.95.71.05,1.54,1.82,1.58,2.12-1.72-.4-3.53-.49-5.26-.48-.68,0-1.73-.07-2.38.08-.76.17-.82,1.07-.8,1.01,0,0,.24-.87,1.63-.85.79.01,2.01,0,2.72.04,2.72.11,5.65.37,7.82,2.07.84.66,3.28,3.66,3.62,4.38ZM53.32,92.46l-.18.12.18-.12ZM56.27,92.21c.2-.12.38-.26.57-.4-.17.17-.37.3-.57.4ZM76.64,72.87c.43-.24,1.07-.79.98-.74.93-.55,1.48.03,1.54.06-.02,0-.27.3-.39.43-.05.04-.85,1.06-2.1,1.72-.76.4-3.84-.64-2.74-2.21.16-.13.38-.14.43-.17-.11.18-.11.27-.16.47-.1.42.32.66.64.54.2.08,1.09.36,1.79-.1ZM77.78,63.86c-.11-1.15-.14-2.31-.24-3.45-.1-1.16-.23-2.32-.38-3.47-.07-.5-.07-1-.11-1.51-.05-.53-.25-2.15-.43-2.55.23.22.8.62.82.65-.52-.51-2.12-2.29-2.7-3.42-.47-.79-.84-1.61-1.07-2.46,1.87.32,4.34-.05,5.29-.44,1.32,2.62,2.01,5.57,2.45,8.45.2,1.31.21,2.65.2,3.97-.01,1.57-.23,3.22-.51,4.76-.24,1.35-.62,2.71-1.33,3.92-.18.31-.34.43-.61.67-.61.5-1.23.72-2,1.34l-.34.07c-.27.16-.41.73-.57,1-.3.52-1.07,1.17-1.28,1.31-.25.17-.56.15-.53-.4.01-.21,2.08-3.24,2.29-3.53.18-.25.37-.51.63-.66.12-.07.27-.15.34-.27.28-.53.13-3.38.07-3.97ZM77.14,68.24l.15-.1-.15.1ZM56.13,69.27c-.14.11-.29.17-.46.19.16-.03.33-.09.46-.19ZM57.64,91.55l-.11.08.09-.06.03-.02h0ZM64.72,88.82c-.08.79-.98,1.9-1.12,2.07-.94,1.12-2.25,1.11-2.38.65-.09-.28.65-.86.84-1.13.37-.56.3-1.23.3-1.22-.04.49-.51,1.03-.82,1.38-.29.34-.59.72-.75.8-.16.1-.41.12-.54-.06-.21-.38.06-.49.01-.46,1.03-.49,1.32-1,1.34-1.55,0,.07-.39.99-1.23,1.32-.22.08-.3.14-.4.32-.73-.38-.11-.63.74-1.13.01-.01.39-.29.66-.59.63-.68.48-1.65.17-2.44-.17-.45-.34-.87-.49-1.33-.39-1.25-.72-2.63-1.42-3.76-.14-.25-.3-.5-.33-.79-.03-.25-.05-1.08.07-1.24.11-.19.78-1.22,1.11-1.46h0c.63,1.12,2.68,1.2,3.17,1.35,1.47.45,1.59,1.72,1.56,2.18-.03.51-.27.97-.41,1.44-.29,1-.85,1.96-.79,3.01.04.58.76,2.13.71,2.64ZM65.06,89.82c-.15.05-.17-.06-.18-.16.86-1.18-.23-3.22-.22-3.47.02-.54.39-2.7.52-3.24.16-.7.51-1.3.37-2.04-.14-.73-.79-1.27-1.45-1.58-.34-.16-2.64-.35-3.37-1.55,0-.02.21-.17-.97-1.34-.48-.48-.96-.98-1.44-1.46-.4-2.71-2.24-4.3-2.24-4.3h0s0,0,0,0h0c-.21-.43-.44-.82-.73-1.21.31.01.62-.06.85-.24.42.13.86.21,1.29.28,1.12.15,2.23.3,3.36.42,1.19.13,2.36.25,3.55.34,1.18.08,2.35.08,3.53.1,1.1.02,2.21.02,3.32-.04.89-.06,1.85-.07,2.7-.35,1.85-.6,2.97-3.11,3.27-2.92.2.13.05.76-.15.88-.1.09-.83.89-2.6,3.82-.03,0-1.01.11-1.03,1.14-.02,1.39,2.65,2.23,3.2,2,0,0,.96-.34,2.25-1.53-.28.47-.55.97-.72,1.48-.27.78-2.48,5.1-3.2,6.82-.34-.69-.82-1.26-1.48-1.68-.35-.21-.71-.31-1.11-.43-.41-.13-1.12-.32-1.33-.74-.02-.04-.04-4.3-.19-5.71-.05-.48-.32-1.39-.64-1.76-.03-.04.63,1.89.33,3.13-.11.44.1,2.09.19,3.48-.53-.37-1.19-.63-1.8-.81-.62-.18-.64-1.12-.65-1.62,0-.53.1-1.04.14-1.57.07-.86-.03-1.78-.26-2.62,0,.02.06,1.9.01,2.77-.03.53-.13,1.04-.14,1.56,0,.54.04,1.39.66,1.62.64.24,1.51.58,2.06,1,.01.2.04.39.02.58-.06.58,1.9,1.1,2.27,1.26.81.38,1.42,1.05,1.79,1.84,0,0-.94,2.3-.11,3.07-2.9,2.11-5.99,3.69-9.66,4.76ZM85.13,72.66c-.46.25-1.01.49-1.07,0-.02-.23.73-2.31.96-3.15.5-1.87,1.24-5.73,1.34-5.71.12.03.56.2.84.17-.18,1.94-1.41,7.33-2.07,8.69ZM87.49,67c-.51,1.9-.94,2.38-.88,2.16.41-1.92.98-2.92,1.15-4.88.15-.04.27-.08.35-.11-.19,1.11-.33,1.76-.62,2.83ZM89.99,72.45c-.59-.63.37-2.28.39-2.32.03.01.27-.07.4-.11l.05-.02h.04c-.95,1.27-.86,2.3-.88,2.45ZM92.6,66.21c-.17.5-.39.69-.76,1.44-.06-.05-.08-.14-.07-.24-.04-.67.45-1.84.61-2.11,0,0-.64.22-1.5,4.53l-.44.12c.09-.21.16-.41.23-.62.27-.77.46-1.54.54-2.35.17-1.87,1.46-2.39,1.54-2.34.14.41-.01,1.17-.15,1.58Z"/>
  </g>
</svg>