<?xml version="1.0" encoding="UTF-8"?>
<svg id="Capa_1" xmlns="http://www.w3.org/2000/svg" version="1.1" viewBox="0 0 212.61 18.52">
  <!-- Generator: Adobe Illustrator 29.6.1, SVG Export Plug-In . SVG Version: 2.1.1 Build 9)  -->
  <defs>
    <style>
      .st0 {
        fill: #60605f;
      }
    </style>
  </defs>
  <g>
    <g>
      <path class="st0" d="M154.9,13.09c0-.37.3-.66.67-.66s.67.28.67.66-.3.68-.67.68-.67-.3-.67-.68Z"/>
      <path class="st0" d="M157.26,10.02c0-2.05,1.62-3.75,3.78-3.75s3.8,1.64,3.8,3.75v3.63h-.88v-1.68c-.55,1.09-1.67,1.83-3.04,1.83-2.08,0-3.66-1.7-3.66-3.78ZM163.91,10.04c0-1.58-1.27-2.89-2.87-2.89s-2.86,1.31-2.86,2.89,1.27,2.89,2.86,2.89,2.87-1.31,2.87-2.89Z"/>
      <path class="st0" d="M166.46,15.29l.77-.43c.52.91,1.49,1.4,2.62,1.4,1.76,0,2.98-1.28,2.98-3.23v-1.01c-.51,1.01-1.58,1.76-2.96,1.76-2.07,0-3.69-1.65-3.69-3.75s1.62-3.75,3.78-3.75,3.8,1.64,3.8,3.75v3.04c0,2.47-1.62,4.08-3.89,4.08-1.46,0-2.75-.64-3.41-1.85ZM172.84,10.01c0-1.58-1.28-2.86-2.87-2.86s-2.86,1.28-2.86,2.86,1.28,2.89,2.86,2.89,2.87-1.3,2.87-2.89Z"/>
      <path class="st0" d="M175.1,10.02c0-2.08,1.44-3.77,3.56-3.77s3.47,1.5,3.47,3.56v.55h-6.12c.15,1.47,1.28,2.56,2.81,2.56.98,0,1.88-.37,2.4-1.3l.71.39c-.66,1.19-1.79,1.79-3.11,1.79-2.13,0-3.72-1.62-3.72-3.78ZM181.21,9.62c-.03-1.5-1.09-2.49-2.55-2.49s-2.49,1.09-2.62,2.49h5.17Z"/>
      <path class="st0" d="M184.49,10.04v3.62h-.92v-3.69c0-2.08,1.27-3.69,3.44-3.69s3.51,1.59,3.51,3.68v3.71h-.92v-3.6c0-1.55-.91-2.9-2.59-2.9s-2.52,1.35-2.52,2.89Z"/>
      <path class="st0" d="M191.86,10.04c0-2.08,1.68-3.77,3.68-3.77,1.28,0,2.44.57,3.11,1.79l-.77.45c-.52-.92-1.37-1.35-2.34-1.35-1.49,0-2.75,1.31-2.75,2.89s1.27,2.89,2.75,2.89c.97,0,1.82-.43,2.34-1.34l.77.43c-.67,1.22-1.83,1.79-3.11,1.79-2,.01-3.68-1.68-3.68-3.77Z"/>
      <path class="st0" d="M199.7,15.35l.77-.43c.51.91,1.47,1.34,2.5,1.34,1.79,0,2.67-1.37,2.65-3.13v-1.01c-.45,1-1.33,1.65-2.59,1.65-2.12,0-3.22-1.43-3.22-3.51v-3.83h.92v3.74c0,1.62.82,2.73,2.38,2.73s2.5-1.3,2.5-2.89v-3.57h.92v6.7c0,2.34-1.24,4.01-3.56,4.01-1.37,0-2.64-.58-3.29-1.79Z"/>
    </g>
    <g>
      <path class="st0" d="M123.25,9.94c0-2.27,1.85-4.12,4.21-4.12s4.18,1.87,4.18,4.12-1.82,4.15-4.18,4.15-4.21-1.87-4.21-4.15ZM130.06,9.95c0-1.45-1.13-2.64-2.59-2.64s-2.62,1.19-2.62,2.64,1.14,2.62,2.62,2.62,2.59-1.19,2.59-2.62Z"/>
      <path class="st0" d="M131.88,6.01h1.71l2.32,6.42c.02.08.08.16.18.16.11,0,.18-.08.19-.16l2.32-6.42h1.69l-2.56,6.85c-.31.82-.87,1.24-1.64,1.24s-1.35-.42-1.66-1.24l-2.54-6.85Z"/>
      <path class="st0" d="M142.47,10.08v3.81h-1.59v-3.97c0-2.3,1.37-4.1,3.91-4.1s3.97,1.8,3.97,4.09v3.99h-1.59v-3.8c0-1.48-.8-2.75-2.38-2.75s-2.32,1.27-2.32,2.73Z"/>
      <path class="st0" d="M150.36,3.92c0-.58.47-1.06,1.05-1.06s1.03.48,1.03,1.06-.45,1.05-1.03,1.05-1.05-.47-1.05-1.05ZM152.21,6.01v7.88h-1.59v-7.88h1.59Z"/>
    </g>
    <g>
      <path class="st0" d="M115.03,12.37c-2.18,1.48-4.96,1.39-6.25,1.15-.37-.07-.61-.43-.54-.8.26-1.29,1.22-3.89,3.4-5.37,2.18-1.48,4.96-1.39,6.25-1.15.37.07.61.43.54.8-.26,1.29-1.22,3.89-3.4,5.37Z"/>
      <path class="st0" d="M99.32,12.37c2.18,1.48,4.96,1.39,6.25,1.15.37-.07.61-.43.54-.8-.26-1.29-1.22-3.89-3.4-5.37-2.18-1.48-4.96-1.39-6.25-1.15-.37.07-.61.43-.54.8.26,1.29,1.22,3.89,3.4,5.37Z"/>
    </g>
  </g>
  <g>
    <path class="st0" d="M8.38,13.75V3.8h2.87c2.53,0,4.27,1.12,4.27,3.43s-1.82,3.46-4.24,3.46h-1.95v3.07h-.95ZM9.33,4.69v5.09h1.94c1.83,0,3.28-.73,3.28-2.56s-1.36-2.53-3.28-2.53h-1.94Z"/>
    <path class="st0" d="M16.21,10.11c0-2.07,1.68-3.75,3.8-3.75s3.78,1.7,3.78,3.75-1.65,3.78-3.78,3.78-3.8-1.7-3.8-3.78ZM22.87,10.13c0-1.58-1.27-2.89-2.86-2.89s-2.87,1.31-2.87,2.89,1.27,2.89,2.87,2.89,2.86-1.31,2.86-2.89Z"/>
    <path class="st0" d="M25.78,12.78l-1.44-6.25h.88l1.38,6.08c.07.31.21.46.45.46.21,0,.36-.16.42-.42l1.28-5.17c.19-.76.61-1.12,1.27-1.12s1.06.36,1.24,1.1l1.27,5.18c.08.27.22.42.45.42s.36-.15.43-.46l1.37-6.08h.86l-1.43,6.25c-.18.76-.58,1.13-1.24,1.13s-1.06-.37-1.24-1.1l-1.27-5.2c-.08-.28-.24-.43-.46-.43s-.39.15-.45.43l-1.28,5.2c-.18.73-.55,1.1-1.22,1.1s-1.09-.39-1.27-1.13Z"/>
    <path class="st0" d="M36.16,10.11c0-2.08,1.45-3.77,3.56-3.77s3.47,1.5,3.47,3.56v.55h-6.12c.15,1.47,1.28,2.56,2.82,2.56.98,0,1.88-.37,2.4-1.3l.71.39c-.66,1.19-1.79,1.79-3.11,1.79-2.13,0-3.72-1.62-3.72-3.78ZM42.27,9.71c-.03-1.5-1.09-2.49-2.55-2.49s-2.49,1.09-2.62,2.49h5.17Z"/>
    <path class="st0" d="M44.63,13.75v-4.45c0-1.68.97-2.87,2.64-2.87.45,0,.88.09,1.25.27v.94c-.36-.21-.76-.31-1.18-.31-1.1,0-1.79.79-1.79,2.03v4.41h-.92Z"/>
    <path class="st0" d="M48.6,10.11c0-2.08,1.45-3.77,3.56-3.77s3.47,1.5,3.47,3.56v.55h-6.12c.15,1.47,1.28,2.56,2.82,2.56.98,0,1.88-.37,2.4-1.3l.71.39c-.66,1.19-1.79,1.79-3.11,1.79-2.13,0-3.72-1.62-3.72-3.78ZM54.71,9.71c-.03-1.5-1.09-2.49-2.55-2.49s-2.49,1.09-2.62,2.49h5.17Z"/>
    <path class="st0" d="M56.54,10.14c0-2.13,1.61-3.78,3.74-3.78,1.22,0,2.29.63,2.9,1.55V3.2h.94v6.94c0,2.12-1.67,3.77-3.8,3.77s-3.78-1.7-3.78-3.77ZM63.2,10.14c0-1.58-1.27-2.9-2.87-2.9s-2.86,1.33-2.86,2.9,1.27,2.89,2.86,2.89,2.87-1.31,2.87-2.89Z"/>
    <path class="st0" d="M69.74,10.14V3.2h.92v4.71c.61-.92,1.68-1.55,2.9-1.55,2.14,0,3.75,1.65,3.75,3.78s-1.62,3.77-3.78,3.77-3.8-1.65-3.8-3.77ZM76.4,10.14c0-1.58-1.27-2.9-2.86-2.9s-2.87,1.33-2.87,2.9,1.27,2.89,2.87,2.89,2.86-1.31,2.86-2.89Z"/>
    <path class="st0" d="M78.52,15.44l.78-.43c.51.91,1.47,1.34,2.5,1.34,1.79,0,2.67-1.37,2.65-3.13v-1.01c-.45,1-1.33,1.65-2.59,1.65-2.11,0-3.22-1.43-3.22-3.51v-3.83h.92v3.74c0,1.62.82,2.73,2.38,2.73s2.5-1.3,2.5-2.89v-3.57h.92v6.7c0,2.34-1.24,4.01-3.56,4.01-1.37,0-2.64-.58-3.29-1.79Z"/>
  </g>
</svg>