<?xml version="1.0" encoding="UTF-8"?>
<svg id="Layer_1" xmlns="http://www.w3.org/2000/svg" version="1.1" viewBox="0 0 1157 1156">
  <!-- Generator: Adobe Illustrator 29.6.1, SVG Export Plug-In . SVG Version: 2.1.1 Build 9)  -->
  <defs>
    <style>
      .st0 {
        fill: #25d366;
        fill-rule: evenodd;
      }
    </style>
  </defs>
  <path class="st0" d="M602.54,201.45c-193.2,0-350.31,157.11-350.39,350.21-.04,66.17,18.49,130.62,53.54,186.39l8.32,13.25-35.38,129.25,132.56-34.77,12.79,7.59c53.78,31.9,115.43,48.8,178.26,48.82h.14v-.02c193.04,0,350.15-157.11,350.23-350.23.04-93.57-36.35-181.58-102.48-247.77-66.13-66.21-154.06-102.68-247.61-102.72ZM808.53,702.31c-8.77,24.59-50.83,47.04-71.06,50.07-18.14,2.71-41.09,3.84-66.31-4.18-15.29-4.85-34.91-11.34-60.03-22.19-105.61-45.62-174.59-151.96-179.86-158.99-5.27-7.03-43-57.12-43-108.93s27.2-77.28,36.85-87.83c9.66-10.55,21.05-13.17,28.08-13.17s14.04.06,20.18.36c6.45.34,15.13-2.45,23.68,18.08,8.79,21.07,29.84,72.9,32.47,78.17,2.63,5.28,4.38,11.42.87,18.45-3.52,7.01-5.25,11.42-10.53,17.56-5.27,6.14-11.07,13.72-15.8,18.45-5.25,5.23-10.75,10.93-4.61,21.48,6.14,10.55,27.28,45.02,58.57,72.94,40.23,35.86,74.15,46.98,84.68,52.25,10.53,5.27,16.67,4.41,22.81-2.63,6.14-7.01,26.33-30.73,33.34-41.28,7.01-10.55,14.02-8.79,23.68-5.27,9.66,3.52,61.42,28.98,71.95,34.25l-.02.04c10.53,5.27,17.56,7.92,20.18,12.3,2.63,4.38,2.63,25.48-6.14,50.07Z"/>
  <path class="st0" d="M866.61-.42H290.39C130.27-.42.47,129.38.47,289.49v576.22c0,160.12,129.8,289.92,289.92,289.92h576.22c160.12,0,289.92-129.8,289.92-289.92V289.49C1156.52,129.38,1026.72-.42,866.61-.42ZM602.4,973.35h-.18c-70.52-.02-139.82-17.7-201.36-51.28l-223.39,58.59,59.79-218.37c-36.88-63.89-56.29-136.38-56.25-210.65.08-232.33,189.12-421.35,421.39-421.35,112.72.04,218.52,43.93,298.06,123.57v.02c79.57,79.65,123.35,185.5,123.31,298.1-.08,232.33-189.14,421.37-421.37,421.37Z"/>
</svg>